<svg width="22" height="24" viewBox="0 0 22 24" fill="none" xmlns="http://www.w3.org/2000/svg">
<path d="M0.75 21.5542V21.5541V8.02079L0.75 8.02065C0.749953 7.76077 0.815297 7.50245 0.94339 7.2664C1.07158 7.03016 1.26 6.82126 1.49692 6.65977C1.49699 6.65973 1.49706 6.65968 1.49713 6.65964C1.49717 6.6596 1.49722 6.65957 1.49727 6.65954L9.6961 1.08077C9.69645 1.08054 9.69679 1.0803 9.69714 1.08007C10.0125 0.867416 10.3959 0.75 10.7935 0.75C11.1911 0.75 11.5746 0.867431 11.8899 1.08011C11.8902 1.08033 11.8906 1.08055 11.8909 1.08077L20.0901 6.65978L20.0935 6.66208C20.3324 6.82273 20.5228 7.03142 20.6526 7.26791C20.7821 7.50369 20.8488 7.76201 20.85 8.02213V21.5541C20.85 21.9885 20.6669 22.4151 20.3244 22.7372C19.9804 23.0608 19.5044 23.2499 18.9992 23.2499L13.364 23.2499L13.3612 23.2499C13.3115 23.2501 13.2632 23.241 13.2195 23.2241L12.9486 23.9235L13.2195 23.2241C13.1758 23.2072 13.1391 23.1834 13.1102 23.1563C13.0815 23.1293 13.0614 23.0997 13.0486 23.0706C13.0359 23.0416 13.0302 23.0123 13.0303 22.9841V22.9809V16.4954C13.0303 15.804 12.5065 15.3514 12.1389 15.128C11.7366 14.8834 11.2227 14.7213 10.7581 14.7264C10.302 14.7276 9.79593 14.8946 9.4009 15.138C9.04331 15.3583 8.51766 15.8086 8.51766 16.4954V22.9766C8.51714 23.0059 8.51066 23.036 8.49727 23.0656C8.4835 23.0961 8.46203 23.1269 8.4317 23.1549C8.40128 23.1829 8.3628 23.2072 8.31742 23.2244C8.27198 23.2415 8.22199 23.2505 8.17072 23.25L8.17072 23.2499H8.16231H2.57869C2.078 23.2444 1.6083 23.0534 1.26908 22.7312C0.930659 22.4097 0.749977 21.9857 0.75 21.5542Z" stroke="#5C45ED" stroke-width="1.5"/>
</svg>
