<svg width="24" height="24" viewBox="0 0 24 24" fill="none" xmlns="http://www.w3.org/2000/svg">
<path d="M23.6997 22.2788L19.8941 18.5408C21.8238 16.3806 22.8319 13.5718 22.7088 10.6992C22.5856 7.82649 21.3406 5.11116 19.2328 3.11829C17.1251 1.12543 14.317 0.00852735 11.3929 4.86268e-05C8.46886 -0.00843009 5.6541 1.09216 3.53444 3.07277C1.41478 5.05338 0.153506 7.76144 0.0131122 10.6333C-0.127282 13.5053 0.864018 16.3198 2.78071 18.4912C4.69739 20.6626 7.39182 22.0235 10.3032 22.2909C13.2146 22.5582 16.1188 21.7113 18.4112 19.9264L22.2495 23.7047C22.3447 23.7983 22.4578 23.8726 22.5822 23.9233C22.7066 23.9739 22.8399 24 22.9746 24C23.1093 24 23.2426 23.9739 23.367 23.9233C23.4914 23.8726 23.6044 23.7983 23.6997 23.7047C23.7949 23.6111 23.8704 23.4999 23.9219 23.3776C23.9735 23.2552 24 23.1241 24 22.9917C24 22.8593 23.9735 22.7282 23.9219 22.6059C23.8704 22.4836 23.7949 22.3724 23.6997 22.2788ZM2.09507 11.1937C2.09507 9.38769 2.63972 7.62222 3.66015 6.12055C4.68057 4.61889 6.13095 3.44849 7.82785 2.75735C9.52476 2.06621 11.392 1.88538 13.1934 2.23772C14.9948 2.59006 16.6496 3.45974 17.9483 4.7368C19.2471 6.01386 20.1315 7.64093 20.4899 9.41227C20.8482 11.1836 20.6643 13.0196 19.9614 14.6882C19.2585 16.3567 18.0682 17.7829 16.5411 18.7863C15.0139 19.7896 13.2184 20.3252 11.3817 20.3252C8.91972 20.322 6.55952 19.3589 4.81865 17.6471C3.07777 15.9353 2.09832 13.6146 2.09507 11.1937Z" fill="#5C45ED"/>
</svg>
