<svg width="39" height="40" viewBox="0 0 39 40" fill="none" xmlns="http://www.w3.org/2000/svg">
    <defs>
    <linearGradient id="paint0_linear_1480_4368" x1="-10.0853" y1="7.34769" x2="42.6362" y2="29.4543" gradientUnits="userSpaceOnUse">
    <stop stop-color="#441578"/>
    <stop offset="0.26" stop-color="#3A2E8B"/>
    <stop offset="0.79" stop-color="#226CBD"/>
    <stop offset="1" stop-color="#1886D1"/>
    </linearGradient>
    <clipPath id="clip0_1480_4368">
    <rect width="38.6854" height="39.2543" fill="white" transform="translate(0.118164 0.187012)"/>
    </clipPath>
    </defs>
<g clip-path="url(#clip0_1480_4368)">
<path d="M38.7168 21.7922C39.8185 11.0084 32.0983 1.38142 21.4733 0.289669C10.8483 -0.80208 1.3419 7.05485 0.240188 17.8386C-0.861526 28.6223 6.85864 38.2493 17.4837 39.341C28.1087 40.4328 37.6151 32.5759 38.7168 21.7922Z" fill="url(#paint0_linear_1480_4368)"/>
<path fill-rule="evenodd" clip-rule="evenodd" d="M13.5788 17.9417C14.0164 18.0977 14.2446 18.579 14.0885 19.0165L13.2963 18.734C14.0885 19.0165 14.0884 19.017 14.0882 19.0176L14.0878 19.0186L14.087 19.0208L14.0852 19.0257L14.081 19.0369C14.0779 19.0452 14.0741 19.0548 14.0697 19.0657C14.0608 19.0876 14.0493 19.1147 14.0346 19.1464C14.0055 19.2097 13.9639 19.2918 13.9072 19.3862C13.7942 19.5745 13.6188 19.8161 13.3591 20.0551C12.8242 20.5472 11.9837 20.9793 10.7448 20.9793C9.50101 20.9793 8.63029 20.5515 8.06486 20.0849C7.78783 19.8563 7.59192 19.6252 7.46216 19.4451C7.39713 19.3548 7.34809 19.2765 7.3132 19.2164C7.29574 19.1863 7.28175 19.1606 7.27102 19.1401C7.26565 19.1299 7.26109 19.1209 7.2573 19.1133L7.25221 19.103L7.25009 19.0986L7.24914 19.0966L7.24869 19.0957C7.24847 19.0952 7.24825 19.0948 8.00811 18.734L7.24825 19.0948C7.04899 18.6751 7.22765 18.1734 7.64731 17.9741C8.06285 17.7768 8.55887 17.95 8.76202 18.3609C8.76309 18.3629 8.7652 18.3667 8.7684 18.3722C8.77807 18.3889 8.79728 18.4203 8.8271 18.4617C8.88705 18.5449 8.9872 18.6648 9.1356 18.7873C9.42103 19.0228 9.91864 19.297 10.7448 19.297C11.5565 19.297 11.9917 19.0271 12.22 18.8171C12.3418 18.705 12.4197 18.5956 12.4647 18.5206C12.487 18.4833 12.5006 18.4557 12.5068 18.4422C12.5082 18.4392 12.5092 18.4369 12.5098 18.4355C12.6718 18.0083 13.1466 17.7875 13.5788 17.9417Z" fill="#190A33"/>
<path fill-rule="evenodd" clip-rule="evenodd" d="M31.196 17.9417C31.6336 18.0978 31.8618 18.579 31.7057 19.0166L30.9135 18.734C31.7057 19.0166 31.7056 19.0171 31.7054 19.0176L31.705 19.0186L31.7042 19.0208L31.7024 19.0257L31.6982 19.037C31.6951 19.0452 31.6913 19.0548 31.6869 19.0657C31.678 19.0876 31.6665 19.1148 31.6518 19.1465C31.6227 19.2097 31.5811 19.2918 31.5244 19.3862C31.4114 19.5745 31.236 19.8161 30.9763 20.0551C30.4414 20.5472 29.6009 20.9793 28.362 20.9793C27.1179 20.9793 26.247 20.5515 25.6815 20.0849C25.4044 19.8563 25.2084 19.6252 25.0787 19.4451C25.0136 19.3549 24.9646 19.2765 24.9297 19.2164C24.9122 19.1863 24.8982 19.1606 24.8875 19.1401C24.8821 19.1299 24.8775 19.1209 24.8738 19.1133L24.8687 19.103L24.8665 19.0986L24.8656 19.0966L24.8651 19.0957C24.8649 19.0952 24.8647 19.0948 25.6246 18.734L24.8647 19.0948C24.6654 18.6751 24.8441 18.1734 25.2638 17.9741C25.6793 17.7768 26.1753 17.9501 26.3785 18.3609C26.3795 18.3629 26.3817 18.3667 26.3848 18.3722C26.3945 18.3889 26.4137 18.4202 26.4435 18.4616C26.5035 18.5448 26.6036 18.6648 26.7521 18.7872C27.0376 19.0228 27.5354 19.297 28.362 19.297C29.1737 19.297 29.6089 19.0271 29.8372 18.8171C29.959 18.705 30.0369 18.5955 30.0819 18.5206C30.1043 18.4833 30.1178 18.4557 30.124 18.4422C30.1254 18.4392 30.1264 18.4369 30.127 18.4355C30.289 18.0083 30.7638 17.7875 31.196 17.9417ZM30.1279 18.4335L30.1279 18.4335L30.1279 18.4335Z" fill="#190A33"/>
<path d="M28.3265 28.7865C28.2564 28.7865 28.1875 28.7674 28.1269 28.7311C28.0663 28.6948 28.0162 28.6427 27.9817 28.5801C27.9761 28.5703 27.4054 27.5577 26.103 26.5605C24.8989 25.6429 22.8101 24.5523 19.6726 24.5523C16.535 24.5523 14.4883 25.6446 13.3206 26.5605C12.0523 27.5553 11.518 28.5647 11.5125 28.5752C11.4612 28.6664 11.3774 28.7336 11.2787 28.7627C11.1801 28.7918 11.0742 28.7805 10.9835 28.7312C10.8928 28.6819 10.8243 28.5985 10.7924 28.4984C10.7605 28.3984 10.7677 28.2896 10.8125 28.1949C10.8363 28.1477 11.4142 27.0449 12.803 25.9436C14.0713 24.9383 16.2909 23.7395 19.6726 23.7395C23.0542 23.7395 25.3087 24.9367 26.6079 25.9404C28.03 27.0392 28.6428 28.1388 28.669 28.1851C28.7018 28.2466 28.7186 28.3157 28.7176 28.3858C28.7167 28.4559 28.698 28.5245 28.6636 28.5851C28.6291 28.6456 28.58 28.696 28.5209 28.7313C28.4618 28.7666 28.3949 28.7856 28.3265 28.7865Z" fill="#190A33"/>
<path fill-rule="evenodd" clip-rule="evenodd" d="M27.9817 28.5801C27.9707 28.5607 27.3991 27.5528 26.103 26.5605C24.8989 25.6429 22.8101 24.5523 19.6726 24.5523C16.535 24.5523 14.4883 25.6446 13.3206 26.5605C12.0523 27.5553 11.518 28.5647 11.5125 28.5752C11.4612 28.6664 11.3774 28.7336 11.2787 28.7627C11.1801 28.7918 11.0742 28.7805 10.9835 28.7312C10.8928 28.6819 10.8243 28.5985 10.7924 28.4984C10.7605 28.3984 10.7677 28.2896 10.8125 28.1949C10.8363 28.1477 11.4142 27.0449 12.803 25.9436C14.0713 24.9383 16.2909 23.7395 19.6726 23.7395C23.0542 23.7395 25.3087 24.9367 26.6079 25.9404C28.0181 27.03 28.6324 28.1203 28.6681 28.1837L28.669 28.1851C28.7018 28.2466 28.7186 28.3157 28.7176 28.3858C28.7167 28.4559 28.698 28.5245 28.6636 28.5851C28.6291 28.6456 28.58 28.696 28.5209 28.7313C28.4618 28.7666 28.3949 28.7856 28.3265 28.7865C28.2564 28.7865 28.1875 28.7674 28.1269 28.7311C28.0663 28.6948 28.0162 28.6427 27.9817 28.5801ZM27.6886 28.7455C27.7515 28.8583 27.8427 28.9531 27.954 29.0198C28.0664 29.0871 28.1949 29.1229 28.3263 29.123L28.3265 28.7865L28.331 29.123C28.459 29.1212 28.5839 29.0856 28.6935 29.0201C28.803 28.9546 28.8931 28.8618 28.9559 28.7516C29.0187 28.6414 29.0523 28.517 29.054 28.3904C29.0557 28.2637 29.0254 28.1385 28.9657 28.0267L28.9638 28.0231L28.9612 28.0184C28.9161 27.9386 28.2758 26.8039 26.8136 25.6741C25.4653 24.6325 23.1402 23.4031 19.6725 23.4031C16.2043 23.4031 13.9128 24.6345 12.5939 25.68C11.1567 26.8195 10.5511 27.9659 10.5121 28.0433L10.5101 28.0471L10.5083 28.051C10.427 28.2229 10.4141 28.4197 10.4718 28.6007C10.5296 28.7818 10.6544 28.9353 10.8228 29.0268C10.9915 29.1185 11.1894 29.1398 11.3738 29.0854C11.5581 29.0311 11.7122 28.9063 11.8057 28.7402L11.808 28.736L11.8102 28.7319C11.8102 28.7319 12.3189 27.7737 13.5282 26.8252C14.6447 25.9494 16.62 24.8887 19.6725 24.8887C22.7254 24.8887 24.7441 25.9481 25.8987 26.8279C26.5251 27.3075 26.9746 27.7902 27.2669 28.152C27.413 28.3329 27.5195 28.4832 27.589 28.5874C27.6237 28.6394 27.6492 28.6799 27.6656 28.7069C27.6679 28.7106 27.67 28.7141 27.672 28.7173C27.677 28.7257 27.6809 28.7322 27.6836 28.7369L27.6886 28.7455Z" fill="#190A33"/>
</g>
</svg>
