<svg width="48" height="48" viewBox="0 0 48 48" fill="none" xmlns="http://www.w3.org/2000/svg">
    <defs>
    <linearGradient id="paint0_linear_1480_4374" x1="20.3914" y1="4.25155" x2="28.5514" y2="42.6484" gradientUnits="userSpaceOnUse">
    <stop stop-color="#FFD30F"/>
    <stop offset="0.84" stop-color="#E95445"/>
    <stop offset="0.87" stop-color="#E84B4A"/>
    <stop offset="0.92" stop-color="#E73259"/>
    <stop offset="0.99" stop-color="#E40A70"/>
    <stop offset="1" stop-color="#E30076"/>
    </linearGradient>
    <linearGradient id="paint1_linear_1480_4374" x1="19.9845" y1="38.8776" x2="33.5336" y2="32.0144" gradientUnits="userSpaceOnUse">
    <stop stop-color="#271987"/>
    <stop offset="0.32" stop-color="#441578"/>
    <stop offset="0.48" stop-color="#491D91"/>
    <stop offset="0.83" stop-color="#5531CF"/>
    <stop offset="1" stop-color="#5B3CF1"/>
    </linearGradient>
    <linearGradient id="paint2_linear_1480_4374" x1="27.7349" y1="35.5148" x2="33.4566" y2="35.5148" gradientUnits="userSpaceOnUse">
    <stop stop-color="#EE0979"/>
    <stop offset="0.48" stop-color="#FF6A00"/>
    <stop offset="0.65" stop-color="#FF830A"/>
    <stop offset="1" stop-color="#FFC024"/>
    </linearGradient>
    <linearGradient id="paint3_linear_1480_4374" x1="13.3409" y1="36.6373" x2="23.2197" y2="34.3374" gradientUnits="userSpaceOnUse">
    <stop stop-color="#FF6A00"/>
    <stop offset="0.35" stop-color="#EE0979"/>
    <stop offset="0.44" stop-color="#E90B7D"/>
    <stop offset="0.55" stop-color="#DA108A"/>
    <stop offset="0.67" stop-color="#C1199E"/>
    <stop offset="0.8" stop-color="#9E25BA"/>
    <stop offset="0.94" stop-color="#7234DE"/>
    <stop offset="1" stop-color="#5B3CF1"/>
    </linearGradient>
    <linearGradient id="paint4_linear_1480_4374" x1="17.5719" y1="36.6373" x2="27.4516" y2="34.3374" gradientUnits="userSpaceOnUse">
    <stop stop-color="#66F2E5"/>
    <stop offset="0.54" stop-color="#FFC024"/>
    <stop offset="0.63" stop-color="#FFBB22"/>
    <stop offset="0.74" stop-color="#FFAC1C"/>
    <stop offset="0.85" stop-color="#FF9311"/>
    <stop offset="0.98" stop-color="#FF7003"/>
    <stop offset="1" stop-color="#FF6A00"/>
    </linearGradient>
    </defs>
<path d="M28.5524 42.5736C39.293 40.291 46.1698 29.8459 43.912 19.2439C41.6542 8.64186 31.1168 1.89763 20.3762 4.18023C9.63548 6.46283 2.75878 16.9079 5.01658 27.5099C7.27438 38.112 17.8117 44.8562 28.5524 42.5736Z" fill="url(#paint0_linear_1480_4374)"/>
<path fill-rule="evenodd" clip-rule="evenodd" d="M12.3428 16.9968L12.3414 16.9984C12.3419 16.9979 12.3423 16.9974 12.3428 16.9968L12.3423 16.9974L12.3416 16.9982L12.3413 16.9986L12.3414 16.9984C12.0444 17.3539 11.5156 17.4025 11.1588 17.1065C10.8013 16.8098 10.7519 16.2795 11.0486 15.922L11.684 16.4492C11.0486 15.922 11.0489 15.9217 11.0491 15.9213L11.0498 15.9205L11.0513 15.9187L11.0551 15.9142L11.0661 15.9013C11.0748 15.8911 11.0865 15.8776 11.1011 15.8613C11.1302 15.8286 11.1707 15.7842 11.2222 15.7307C11.3248 15.6242 11.472 15.4802 11.6588 15.3214C12.0281 15.0073 12.5739 14.6159 13.2536 14.3503C13.94 14.0821 14.779 13.9369 15.7002 14.1482C16.623 14.3599 17.5475 14.9108 18.4346 15.8964C18.7454 16.2417 18.7174 16.7735 18.3721 17.0843C18.0268 17.3951 17.4949 17.3671 17.1842 17.0218C16.4807 16.2403 15.8457 15.9076 15.3241 15.788C14.8007 15.668 14.3102 15.7437 13.8658 15.9173C13.4148 16.0935 13.0287 16.3647 12.7488 16.6028C12.611 16.7201 12.5043 16.8247 12.4341 16.8976C12.3991 16.9339 12.3736 16.9619 12.3582 16.9793C12.3505 16.9879 12.3453 16.9939 12.3428 16.9968ZM30.4443 17.1065C30.801 17.4024 31.3297 17.354 31.6267 16.9986C31.6268 16.9986 31.6268 16.9985 31.6269 16.9985C31.6271 16.9982 31.6273 16.9979 31.6276 16.9976C31.6278 16.9973 31.628 16.9971 31.6282 16.9968C31.6308 16.9939 31.6359 16.9879 31.6436 16.9793C31.6591 16.9619 31.6846 16.9339 31.7195 16.8976C31.7897 16.8247 31.8964 16.7201 32.0343 16.6028C32.3142 16.3647 32.7003 16.0935 33.1513 15.9173C33.5956 15.7437 34.0862 15.668 34.6095 15.788C35.1312 15.9076 35.7661 16.2403 36.4696 17.0218C36.7804 17.3671 37.3123 17.3951 37.6575 17.0843C38.0028 16.7735 38.0308 16.2417 37.72 15.8964C36.8329 14.9108 35.9084 14.3599 34.9856 14.1482C34.0644 13.9369 33.2254 14.0821 32.5391 14.3503C31.8594 14.6159 31.3135 15.0073 30.9443 15.3214C30.7575 15.4802 30.6102 15.6242 30.5076 15.7307C30.4562 15.7842 30.4156 15.8286 30.3865 15.8613C30.372 15.8776 30.3603 15.8911 30.3515 15.9013L30.3405 15.9142L30.3367 15.9187L30.3352 15.9205L30.3346 15.9213C30.3343 15.9217 30.334 15.922 30.9729 16.4521L30.334 15.922C30.0374 16.2795 30.0867 16.8098 30.4443 17.1065Z" fill="#190A33"/>
<path d="M24.3954 35.9791C29.9875 35.9791 34.6135 31.2217 35.3747 25.0357C35.4917 24.0863 34.8534 23.2344 34.0155 23.2344H14.7747C13.9405 23.2344 13.2985 24.0863 13.4154 25.0357C14.1788 31.2217 18.8026 35.9791 24.3954 35.9791Z" fill="#190A33"/>
<path d="M24.3955 43.7128C27.458 43.7128 29.9406 40.8596 29.9406 37.34C29.9406 33.8205 27.458 30.9673 24.3955 30.9673C21.333 30.9673 18.8503 33.8205 18.8503 37.34C18.8503 40.8596 21.333 43.7128 24.3955 43.7128Z" fill="#F6694A"/>
<path d="M29.0176 43.167C29.1638 43.6913 29.2335 44.2338 29.2246 44.7779C29.2246 44.8188 29.2246 44.8582 29.2246 44.8969C29.209 46.385 28.8939 47.0495 28.5446 47.7987H24.0497C24.4713 47.0405 24.9658 46.3039 24.9926 44.8969C24.9926 44.8582 24.9926 44.8173 24.9926 44.7771C25.0014 44.2333 24.9317 43.691 24.7856 43.167C24.7774 43.1388 24.7691 43.1105 24.7595 43.083C24.7148 42.9386 24.6649 42.8047 24.6105 42.676C24.5561 42.5472 24.501 42.4252 24.4429 42.3039L24.4079 42.2295C24.361 42.1358 24.3133 42.0428 24.2649 41.9513C24.0616 41.5599 23.8553 41.1723 23.7086 40.6708C23.5624 40.146 23.4926 39.603 23.5015 39.0584C23.4927 38.5143 23.5624 37.9718 23.7086 37.4476C23.7168 37.4193 23.7249 37.3918 23.7346 37.3635C23.751 37.3069 23.7696 37.2526 23.789 37.1991C23.7979 37.1715 23.8076 37.1455 23.8173 37.1194C23.8464 37.045 23.8769 36.9706 23.9089 36.8962C23.9349 36.8352 23.9618 36.7757 23.9893 36.7169C24.031 36.6284 24.0735 36.5436 24.116 36.4587C24.1301 36.4305 24.1443 36.4014 24.1592 36.3739C24.188 36.3174 24.217 36.2616 24.2463 36.2065C24.2753 36.1507 24.3044 36.0942 24.3334 36.0391L24.3766 35.9535C24.4206 35.8687 24.4623 35.7831 24.5033 35.6953C24.5308 35.6366 24.5577 35.577 24.5837 35.516C24.6157 35.4416 24.6455 35.3672 24.6753 35.2928C24.685 35.266 24.6947 35.24 24.7036 35.2132C24.7326 35.1336 24.7587 35.0517 24.784 34.9662C24.9302 34.4415 25 33.8984 24.9911 33.3538C24.9911 31.5227 24.3796 30.8658 23.9402 29.8777C23.9193 29.8293 23.8985 29.7817 23.8776 29.7289C23.8672 29.7036 23.8567 29.6775 23.8471 29.6545C23.8173 29.58 23.7883 29.4997 23.7607 29.4186C23.6065 28.9565 23.5015 28.3985 23.5015 27.6396C23.5015 27.5994 23.5015 27.56 23.5015 27.5205C23.5261 25.2423 24.2508 24.8955 24.7297 23.2363H29.2165C28.9424 24.7705 27.7753 25.3442 27.7335 27.5205C27.7335 27.56 27.7335 27.6001 27.7335 27.6403C27.7335 28.3985 27.8385 28.9565 27.9927 29.4186C28.0203 29.4997 28.0486 29.5786 28.0791 29.6545C28.0888 29.6797 28.0992 29.7058 28.1097 29.7289C28.1305 29.7787 28.1514 29.8263 28.1722 29.8777C28.6117 30.8658 29.2232 31.5235 29.2232 33.3546C29.2321 33.8989 29.1623 34.4417 29.0161 34.9662C28.9908 35.0517 28.9639 35.1336 28.9356 35.2132C28.9267 35.2407 28.917 35.2675 28.9074 35.2928C28.8783 35.3672 28.8477 35.4461 28.8157 35.516C28.7896 35.577 28.7629 35.6366 28.7353 35.6953C28.6936 35.7839 28.6512 35.8695 28.6087 35.9535C28.5945 35.9818 28.5804 36.0108 28.5655 36.0391L28.4791 36.208L28.3919 36.3754L28.3487 36.4602C28.3048 36.5458 28.2631 36.6306 28.2221 36.7184C28.1946 36.7772 28.1677 36.8367 28.1417 36.8977C28.1096 36.9721 28.0799 37.0465 28.0501 37.1209C28.0404 37.1477 28.0307 37.1745 28.0218 37.2005C28.0024 37.2549 27.9845 37.3084 27.9674 37.365C27.9585 37.3918 27.9495 37.42 27.9413 37.4491C27.795 37.9742 27.7252 38.5178 27.7343 39.0629C27.7254 39.6072 27.7952 40.15 27.9413 40.6745C28.0903 41.1767 28.2936 41.5673 28.4977 41.955C28.5461 42.0465 28.5938 42.1395 28.6407 42.2333C28.6519 42.2571 28.6638 42.2809 28.6757 42.3077C28.7338 42.4267 28.7904 42.5495 28.8433 42.6797C28.8962 42.8099 28.9461 42.9423 28.9922 43.0867C29.0004 43.1105 29.0094 43.1388 29.0176 43.167Z" fill="url(#paint1_linear_1480_4374)"/>
<path d="M31.9669 39.0632C31.9669 41.9188 33.4566 41.9188 33.4566 44.7759C33.4566 46.3496 33.134 47.0297 32.775 47.7938H28.2808C28.7024 47.0356 29.197 46.299 29.2238 44.892C29.2238 44.8533 29.2238 44.8176 29.2238 44.773C29.2326 44.2289 29.1629 43.6863 29.0167 43.1621C29.0085 43.1338 29.0003 43.1056 28.9907 43.078C28.946 42.9337 28.8961 42.7998 28.8417 42.671C28.7873 42.5423 28.7322 42.4203 28.6741 42.299C28.6622 42.276 28.6503 42.2521 28.6391 42.2246C28.5922 42.1309 28.5445 42.0379 28.4961 41.9463C28.292 41.5557 28.0864 41.1681 27.9397 40.6658C27.7949 40.1442 27.7257 39.6045 27.7341 39.0632C27.7253 38.5188 27.7951 37.9761 27.9412 37.4516C27.9494 37.4226 27.9583 37.3943 27.9673 37.3675C27.9844 37.311 28.0023 37.2574 28.0217 37.2031C28.0306 37.177 28.0403 37.1502 28.05 37.1235C28.0798 37.049 28.1095 36.9746 28.1415 36.9002C28.1676 36.8392 28.1944 36.7797 28.222 36.7209C28.2637 36.6324 28.3062 36.5476 28.3486 36.4627L28.3918 36.3779C28.4206 36.3214 28.4497 36.2656 28.479 36.2105L28.5661 36.0431C28.581 36.0148 28.5951 35.9858 28.6093 35.9575C28.6532 35.8727 28.695 35.7872 28.7359 35.6994C28.7635 35.6406 28.7903 35.5811 28.8164 35.52C28.8484 35.4456 28.8789 35.3712 28.908 35.2968C28.9176 35.2715 28.9273 35.2447 28.9362 35.2172C28.9653 35.1376 28.9914 35.0558 29.0167 34.9702C29.1635 34.4436 29.2333 33.8985 29.2238 33.3519C29.2238 31.5208 28.6123 30.8631 28.1728 29.875C28.152 29.8266 28.1311 29.779 28.1103 29.7262C28.0998 29.7009 28.0894 29.6748 28.0797 29.6518C28.0492 29.5774 28.0209 29.497 27.9934 29.4159C27.8392 28.9539 27.7341 28.3958 27.7341 27.6376C27.7341 27.5975 27.7341 27.5573 27.7341 27.5178C27.7587 25.2396 28.4834 24.8929 28.9624 23.2336H33.4491C33.1698 24.7961 31.9654 25.3624 31.9654 27.6369C31.9654 30.4933 33.455 30.4933 33.455 33.3504C33.455 36.2075 31.9669 36.2075 31.9669 39.0632Z" fill="url(#paint2_linear_1480_4374)"/>
<path d="M20.5536 43.167C20.6998 43.6912 20.7696 44.2338 20.7607 44.7779C20.7607 44.8188 20.7607 44.8582 20.7607 44.8969C20.7451 46.385 20.43 47.0494 20.08 47.7987H15.5865C16.0192 47.0197 16.5294 46.263 16.5294 44.7816C16.5294 41.9259 15.0398 41.9259 15.0398 39.0688C15.0398 36.2117 16.5294 36.2124 16.5294 33.3553C16.5294 30.4982 15.0398 30.4982 15.0398 27.6418C15.0398 25.2549 15.7809 24.9253 16.2687 23.2378H20.7547C20.4807 24.772 19.3143 25.3457 19.2726 27.522C19.2726 27.5614 19.2726 27.6016 19.2726 27.6418C19.2726 28.4 19.3776 28.958 19.5318 29.4201C19.5593 29.5012 19.5876 29.58 19.6181 29.6559C19.6278 29.6812 19.6383 29.7073 19.6487 29.7303C19.6695 29.7802 19.6904 29.8278 19.7112 29.8791C20.1507 30.8672 20.7622 31.525 20.7622 33.356C20.7711 33.9004 20.7014 34.4432 20.5552 34.9676C20.5298 35.0532 20.503 35.1351 20.4747 35.2147C20.4658 35.2422 20.4561 35.269 20.4464 35.2943C20.4174 35.3687 20.3868 35.4476 20.3548 35.5175C20.3287 35.5785 20.3019 35.638 20.2743 35.6968C20.2326 35.7854 20.1902 35.8709 20.1477 35.955C20.1335 35.9833 20.1194 36.0123 20.1045 36.0406L20.0174 36.208C19.9883 36.263 19.9593 36.3196 19.9303 36.3754L19.887 36.4602C19.8431 36.5458 19.8014 36.6306 19.7604 36.7184C19.7329 36.7772 19.706 36.8367 19.68 36.8977C19.6479 36.9721 19.6182 37.0465 19.5884 37.1209C19.5787 37.1477 19.569 37.1745 19.5601 37.2005C19.5407 37.2548 19.5228 37.3084 19.5057 37.365C19.4968 37.3917 19.4878 37.42 19.4796 37.449C19.3335 37.9735 19.2637 38.5163 19.2726 39.0606C19.2637 39.605 19.3335 40.1478 19.4796 40.6722C19.6286 41.1745 19.8319 41.5651 20.036 41.9527C20.0844 42.0442 20.132 42.1373 20.179 42.231C20.1901 42.2548 20.2021 42.2786 20.214 42.3054C20.2721 42.4245 20.3287 42.5472 20.3816 42.6774C20.4345 42.8076 20.4844 42.9401 20.5306 43.0844C20.5373 43.1105 20.5454 43.1387 20.5536 43.167Z" fill="url(#paint3_linear_1480_4374)"/>
<path d="M24.7854 43.167C24.9315 43.691 25.0013 44.2333 24.9925 44.7771C24.9925 44.8173 24.9925 44.8582 24.9925 44.8969C24.9769 46.385 24.6618 47.0495 24.3117 47.7987H19.8168C20.2383 47.0405 20.7329 46.3039 20.7597 44.8969C20.7597 44.8582 20.7597 44.8225 20.7597 44.7779C20.7686 44.2338 20.6988 43.6913 20.5526 43.167C20.5445 43.1388 20.5363 43.1105 20.5266 43.083C20.4819 42.9386 20.432 42.8047 20.3776 42.676C20.3233 42.5472 20.2682 42.4252 20.2101 42.3039C20.1981 42.2809 20.1862 42.2571 20.175 42.2295C20.1281 42.1358 20.0804 42.0428 20.032 41.9513C19.8279 41.5606 19.6224 41.173 19.4756 40.6708C19.3295 40.1463 19.2597 39.6035 19.2686 39.0592C19.2597 38.5148 19.3295 37.972 19.4756 37.4476C19.4838 37.4186 19.4928 37.3903 19.5017 37.3635C19.5189 37.3069 19.5367 37.2534 19.5561 37.1991C19.565 37.173 19.5747 37.1462 19.5844 37.1194C19.6142 37.045 19.644 36.9706 19.676 36.8962C19.7021 36.8352 19.7289 36.7757 19.7564 36.7169C19.7982 36.6284 19.8406 36.5436 19.883 36.4587L19.9262 36.3739C19.9555 36.3174 19.9846 36.2616 20.0134 36.2065C20.0424 36.1507 20.0715 36.0942 20.1005 36.0391C20.1154 36.0108 20.1296 35.9818 20.1437 35.9535C20.1877 35.8687 20.2294 35.7831 20.2704 35.6953C20.2979 35.6366 20.3247 35.577 20.3508 35.516C20.3828 35.4416 20.4133 35.3672 20.4424 35.2928C20.4521 35.2675 20.4618 35.2407 20.4707 35.2132C20.4998 35.1336 20.5258 35.0517 20.5511 34.9662C20.6973 34.4417 20.7671 33.8989 20.7582 33.3546C20.7582 31.5235 20.1467 30.8658 19.7073 29.8777C19.6864 29.8293 19.6656 29.7817 19.6447 29.7289C19.6343 29.7036 19.6239 29.6775 19.6142 29.6545C19.5836 29.58 19.5553 29.4997 19.5278 29.4186C19.3736 28.9565 19.2686 28.3985 19.2686 27.6403C19.2686 27.6001 19.2686 27.56 19.2686 27.5205C19.2931 25.2423 20.0171 24.8955 20.4968 23.2363H24.9828C24.7087 24.7705 23.5423 25.3442 23.5006 27.5205C23.5006 27.56 23.5006 27.5994 23.5006 27.6396C23.5006 28.3985 23.6056 28.9565 23.7598 29.4186C23.7873 29.4997 23.8164 29.5786 23.8462 29.6545C23.8559 29.6797 23.8663 29.7058 23.8767 29.7289C23.8976 29.7787 23.9184 29.8263 23.9393 29.8777C24.3787 30.8658 24.9903 31.5227 24.9903 33.3538C24.9991 33.8984 24.9294 34.4415 24.7832 34.9662C24.7578 35.0517 24.731 35.1336 24.7027 35.2132C24.6938 35.24 24.6841 35.266 24.6744 35.2928C24.6446 35.3672 24.6149 35.4461 24.5829 35.516C24.5568 35.577 24.53 35.6366 24.5024 35.6953C24.4607 35.7839 24.4182 35.8695 24.3758 35.9535L24.3326 36.0391L24.2454 36.2065C24.2164 36.2616 24.1873 36.3181 24.1583 36.3739C24.1434 36.4014 24.1292 36.4305 24.1151 36.4587C24.0712 36.5443 24.0294 36.6291 23.9885 36.7169C23.9609 36.7757 23.9341 36.8352 23.908 36.8962C23.876 36.9706 23.8455 37.045 23.8164 37.1194C23.8068 37.1455 23.797 37.1715 23.7881 37.1991C23.7687 37.2526 23.7501 37.3069 23.7337 37.3635C23.7241 37.3918 23.7159 37.4193 23.7077 37.4476C23.5616 37.9718 23.4918 38.5143 23.5006 39.0584C23.4917 39.603 23.5615 40.146 23.7077 40.6708C23.8567 41.1723 24.0607 41.5599 24.2641 41.9513C24.3125 42.0428 24.3601 42.1358 24.4071 42.2295L24.442 42.3039C24.5001 42.423 24.5567 42.5458 24.6096 42.676C24.6625 42.8062 24.7124 42.9386 24.7586 43.083C24.769 43.1105 24.7772 43.1388 24.7854 43.167Z" fill="url(#paint4_linear_1480_4374)"/>
</svg>
