<svg width="47" height="47" viewBox="0 0 47 47" fill="none" xmlns="http://www.w3.org/2000/svg">
    <defs>
    <linearGradient id="paint0_linear_1480_4397" x1="17.2825" y1="-4.60461" x2="28.5116" y2="47.7345" gradientUnits="userSpaceOnUse">
    <stop stop-color="#D90F36"/>
    <stop offset="0.25" stop-color="#DD0C55"/>
    <stop offset="0.58" stop-color="#E2097A"/>
    <stop offset="0.63" stop-color="#D5097B"/>
    <stop offset="0.72" stop-color="#B30B7D"/>
    <stop offset="0.85" stop-color="#7C0C80"/>
    <stop offset="1" stop-color="#310F84"/>
    </linearGradient>
    </defs>
<path d="M26.9398 42.307C37.7393 40.2488 44.8407 29.9543 42.8012 19.3136C40.7617 8.67283 30.3537 1.71525 19.5542 3.7734C8.75472 5.83154 1.65333 16.126 3.69282 26.7668C5.7323 37.4075 16.1404 44.3651 26.9398 42.307Z" fill="url(#paint0_linear_1480_4397)"/>
<path fill-rule="evenodd" clip-rule="evenodd" d="M17.2173 21.2949C17.671 21.4536 17.9068 21.9411 17.7441 22.3837L16.9226 22.0962C17.7441 22.3837 17.7439 22.3842 17.7437 22.3847L17.7433 22.3858L17.7425 22.388L17.7406 22.3929L17.7362 22.4044C17.7329 22.4128 17.729 22.4226 17.7243 22.4337C17.715 22.456 17.7028 22.4837 17.6875 22.5161C17.6568 22.5806 17.613 22.6644 17.5534 22.7607C17.4345 22.9529 17.25 23.1994 16.9769 23.4431C16.4149 23.9446 15.5321 24.385 14.2299 24.385C12.9221 24.385 12.0069 23.9489 11.4124 23.4732C11.1211 23.24 10.9149 23.0042 10.7784 22.8204C10.7099 22.7283 10.6583 22.6484 10.6217 22.587C10.6033 22.5563 10.5886 22.5301 10.5773 22.5093C10.5717 22.4988 10.5669 22.4897 10.5629 22.482L10.5575 22.4714L10.5553 22.467L10.5543 22.465L10.5539 22.464C10.5536 22.4636 10.5534 22.4631 11.341 22.0962L10.5534 22.4631C10.3457 22.0388 10.5299 21.5306 10.9649 21.328C11.3956 21.1273 11.9106 21.3016 12.1223 21.717C12.1235 21.7191 12.1258 21.7231 12.1293 21.7289C12.1396 21.7462 12.16 21.7786 12.1917 21.8212C12.2554 21.9069 12.3617 22.0305 12.5194 22.1567C12.8231 22.3997 13.3524 22.6823 14.2299 22.6823C15.0919 22.6823 15.5554 22.404 15.7987 22.1868C15.9284 22.0711 16.0112 21.9582 16.059 21.8809C16.0828 21.8425 16.0972 21.8139 16.1039 21.7999C16.1054 21.7967 16.1065 21.7943 16.1072 21.7927C16.276 21.3607 16.7691 21.138 17.2173 21.2949Z" fill="#190A33"/>
<path fill-rule="evenodd" clip-rule="evenodd" d="M35.0127 21.2949C35.4664 21.4536 35.7023 21.9411 35.5395 22.3837L34.7361 22.1025C35.5395 22.3837 35.5393 22.3842 35.5391 22.3847L35.5387 22.3858L35.5379 22.388L35.5361 22.3929L35.5316 22.4044C35.5283 22.4128 35.5244 22.4226 35.5197 22.4337C35.5104 22.456 35.4983 22.4837 35.4829 22.5161C35.4522 22.5806 35.4084 22.6644 35.3489 22.7607C35.2299 22.9529 35.0454 23.1994 34.7723 23.4431C34.2104 23.9446 33.3276 24.385 32.0253 24.385C30.7175 24.385 29.8024 23.9489 29.2079 23.4732C28.9165 23.24 28.7104 23.0042 28.5738 22.8204C28.5054 22.7283 28.4538 22.6484 28.4171 22.587C28.3987 22.5563 28.384 22.5302 28.3727 22.5093C28.3671 22.4988 28.3623 22.4897 28.3583 22.482L28.353 22.4715L28.3507 22.467L28.3497 22.465L28.3493 22.464C28.3491 22.4636 28.3488 22.4631 29.1364 22.0962L28.3488 22.4631C28.1411 22.0388 28.3253 21.5306 28.7603 21.328C29.191 21.1273 29.706 21.3016 29.9177 21.717C29.9189 21.7191 29.9212 21.7231 29.9247 21.7289C29.935 21.7462 29.9554 21.7786 29.9871 21.8212C30.0508 21.9069 30.1572 22.0305 30.3149 22.1567C30.6185 22.3997 31.1479 22.6823 32.0253 22.6823C32.8873 22.6823 33.3508 22.404 33.5942 22.1868C33.7238 22.0711 33.8066 21.9582 33.8544 21.8809C33.8782 21.8425 33.8927 21.8139 33.8993 21.7999C33.9009 21.7967 33.9019 21.7943 33.9026 21.7928C34.0714 21.3607 34.5645 21.138 35.0127 21.2949Z" fill="#190A33"/>
<path fill-rule="evenodd" clip-rule="evenodd" d="M12.7062 15.3248C12.9748 14.9575 13.5276 14.8533 13.9407 15.0923L18.4366 17.6923C18.8497 17.9312 18.9668 18.4227 18.6982 18.7901C18.4295 19.1575 17.8768 19.2616 17.4636 19.0227L12.9677 16.4226C12.5546 16.1837 12.4375 15.6922 12.7062 15.3248Z" fill="#190A33"/>
<path fill-rule="evenodd" clip-rule="evenodd" d="M33.3637 15.3022C33.6129 15.6465 33.5042 16.107 33.1208 16.3308L28.4961 19.0308C28.1127 19.2546 27.5999 19.157 27.3507 18.8127C27.1015 18.4684 27.2102 18.0079 27.5936 17.7841L32.2183 15.0841C32.6016 14.8603 33.1145 14.9579 33.3637 15.3022Z" fill="#190A33"/>
<path d="M31.3375 31.6183C31.2248 31.5573 31.1324 31.4705 31.0688 31.3673L31.0638 31.3594L31.052 31.3415L31.0456 31.332C31.0289 31.3073 31.0032 31.2703 30.968 31.2226C30.8977 31.1273 30.7899 30.9898 30.642 30.8243C30.3462 30.4931 29.8913 30.0515 29.2573 29.6126C28.0888 28.8076 26.0458 27.8382 22.956 27.8382C19.8667 27.8382 17.8676 28.8088 16.7376 29.6102C15.5138 30.4781 14.9989 31.3548 14.9989 31.3548L14.9967 31.3586L14.9943 31.3625C14.8997 31.5144 14.7438 31.6286 14.5573 31.6784C14.3706 31.7281 14.1703 31.7087 13.9996 31.6248C13.8291 31.541 13.7028 31.4005 13.6444 31.2348C13.586 31.0692 13.599 30.8891 13.6813 30.7318L13.6831 30.7283L13.6851 30.7248C13.7246 30.654 14.3375 29.605 15.7921 28.5622C17.1269 27.6056 19.446 26.4788 22.956 26.4788C26.4655 26.4788 28.8187 27.6038 30.1833 28.5569C31.6631 29.5907 32.3111 30.629 32.3567 30.702L32.3594 30.7063L32.3613 30.7096C32.4218 30.8119 32.4524 30.9265 32.4507 31.0424C32.4489 31.1582 32.4149 31.272 32.3514 31.3729C32.2879 31.4738 32.1966 31.5587 32.0858 31.6186C31.9749 31.6785 31.8485 31.7111 31.719 31.7127L31.7144 31.4049L31.7142 31.7127C31.5812 31.7127 31.4512 31.6799 31.3375 31.6183Z" fill="#190A33"/>
</svg>
