<svg width="49" height="49" viewBox="0 0 49 49" fill="none" xmlns="http://www.w3.org/2000/svg">
    <defs>
    <linearGradient id="paint0_linear_1480_4385" x1="5.39865" y1="19.2293" x2="43.3768" y2="29.1573" gradientUnits="userSpaceOnUse">
    <stop stop-color="#FFC024"/>
    <stop offset="0.19" stop-color="#FFBB22"/>
    <stop offset="0.43" stop-color="#FFAC1C"/>
    <stop offset="0.68" stop-color="#FF9311"/>
    <stop offset="0.96" stop-color="#FF7003"/>
    <stop offset="1" stop-color="#FF6A00"/>
    </linearGradient>
    </defs>
<path d="M43.3733 29.1705C46.1495 18.5504 39.8992 7.71569 29.4128 4.9705C18.9264 2.22531 8.17488 8.60921 5.39865 19.2293C2.62241 29.8494 8.87274 40.6842 19.3592 43.4293C29.8456 46.1745 40.5971 39.7906 43.3733 29.1705Z" fill="url(#paint0_linear_1480_4385)"/>
<path fill-rule="evenodd" clip-rule="evenodd" d="M13.2517 22.5129C13.2519 22.5128 13.2521 22.5126 13.2524 22.5123C13.2544 22.5107 13.2591 22.5068 13.2664 22.501C13.281 22.4895 13.3058 22.4701 13.3402 22.4448C13.4092 22.3941 13.5158 22.32 13.6548 22.2364C13.9348 22.0678 14.3342 21.8674 14.8132 21.735C15.7432 21.4779 16.9978 21.4632 18.3573 22.5319C18.7225 22.819 19.2514 22.7556 19.5385 22.3904C19.8256 22.0252 19.7622 21.4964 19.397 21.2093C17.5462 19.7544 15.7165 19.7398 14.3649 20.1135C13.703 20.2965 13.1622 20.5693 12.7872 20.7951C12.5987 20.9085 12.4491 21.0119 12.3438 21.0893C12.291 21.1281 12.2492 21.1605 12.2188 21.1847C12.2037 21.1968 12.1913 21.2068 12.182 21.2145L12.1701 21.2244L12.1658 21.228L12.1641 21.2294L12.1634 21.23C12.163 21.2303 12.1627 21.2306 12.7086 21.8706L12.1627 21.2306C11.8093 21.5321 11.7672 22.063 12.0687 22.4165C12.3693 22.769 12.8982 22.8118 13.2517 22.513C13.2517 22.513 13.2517 22.5129 13.2517 22.5129Z" fill="#190A33"/>
<path fill-rule="evenodd" clip-rule="evenodd" d="M31.8187 22.4559C31.4968 22.7881 30.9666 22.7981 30.6324 22.4775C30.2971 22.1559 30.2861 21.6234 30.6077 21.2882L31.2147 21.8705C30.6077 21.2882 30.608 21.2878 30.6083 21.2875L30.609 21.2868L30.6105 21.2852L30.6143 21.2813L30.6246 21.2709C30.6327 21.2627 30.6432 21.2523 30.6561 21.2397C30.6819 21.2146 30.7172 21.1812 30.7617 21.1412C30.8504 21.0615 30.9764 20.9551 31.1355 20.838C31.4505 20.6063 31.9122 20.3205 32.4841 20.1273C33.0602 19.9326 33.7601 19.8283 34.5288 19.9808C35.3018 20.1341 36.0867 20.5358 36.8445 21.2639C37.1795 21.5858 37.1901 22.1183 36.8682 22.4533C36.5463 22.7883 36.0139 22.7989 35.6789 22.477C35.1235 21.9434 34.6211 21.7142 34.2015 21.631C33.7777 21.5469 33.38 21.6003 33.0226 21.7211C32.6611 21.8432 32.3534 22.0306 32.1324 22.1932C32.0235 22.2733 31.9399 22.3442 31.886 22.3927C31.8591 22.4168 31.8399 22.4351 31.829 22.4458L31.8189 22.4557M31.8187 22.4559C31.8187 22.4559 31.8187 22.4559 31.8187 22.4559L31.8187 22.4559Z" fill="#190A33"/>
<path fill-rule="evenodd" clip-rule="evenodd" d="M18.5274 28.2647C18.3436 27.8415 17.8525 27.645 17.427 27.8257C16.9994 28.0074 16.8001 28.5013 16.9818 28.9289L17.7559 28.5999C16.9818 28.9289 16.982 28.9294 16.9822 28.9299L16.9827 28.9311L16.9838 28.9336L16.9864 28.9395L16.9933 28.9551C16.9987 28.9671 17.0057 28.9823 17.0144 29.0005C17.0317 29.0368 17.0558 29.085 17.0873 29.1434C17.1502 29.2602 17.2429 29.4182 17.3708 29.6035C17.6266 29.974 18.0246 30.4556 18.6077 30.9331C19.7868 31.8985 21.6727 32.8057 24.5446 32.8057C27.4168 32.8057 29.2777 31.8983 30.4314 30.9258C31.0014 30.4453 31.3851 29.9605 31.6296 29.5873C31.7519 29.4006 31.8397 29.2414 31.8991 29.1235C31.9288 29.0645 31.9514 29.0158 31.9677 28.979C31.9758 28.9606 31.9824 28.9452 31.9875 28.933L31.994 28.9171L31.9964 28.911L31.9974 28.9084L31.9979 28.9072C31.9981 28.9066 31.9983 28.9061 31.2146 28.6007L31.9983 28.9061C32.167 28.4732 31.9528 27.9856 31.52 27.8169C31.0894 27.6491 30.6046 27.8602 30.4335 28.2885C30.4329 28.2899 30.4315 28.2931 30.4294 28.2979C30.4239 28.3104 30.4131 28.3339 30.3965 28.367C30.3632 28.4331 30.3068 28.5366 30.2224 28.6653C30.0537 28.9228 29.7747 29.279 29.3471 29.6395C28.5056 30.3489 27.0316 31.1234 24.5446 31.1234C22.0575 31.1234 20.549 30.3483 19.6735 29.6314C19.2294 29.2678 18.9351 28.9082 18.7553 28.6478C18.6654 28.5176 18.6046 28.4128 18.5684 28.3456C18.5503 28.312 18.5384 28.288 18.5322 28.275C18.5297 28.2696 18.5281 28.2662 18.5274 28.2647Z" fill="#190A33"/>
</svg>
