<svg width="193" height="168" viewBox="0 0 193 168" fill="none" xmlns="http://www.w3.org/2000/svg">
<path d="M24.6107 0.564941C10.3624 0.564941 0 10.5529 0 24.2865V109.184C0 121.67 10.3624 132.906 24.6107 132.906H115.282L150.255 166.616C151.55 167.864 154.141 167.864 155.436 166.616C155.436 166.616 156.732 165.367 156.732 164.119V132.906H168.389C181.342 132.906 193 122.918 193 109.184V24.2865C191.705 10.5529 181.342 0.564941 168.389 0.564941H24.6107ZM24.6107 6.80744H168.389C177.456 6.80744 185.228 14.2984 185.228 23.038V107.936C185.228 116.676 177.456 124.166 168.389 124.166H152.846C151.55 124.166 148.96 125.415 148.96 127.912V155.379L119.168 126.664C117.872 125.415 116.577 125.415 116.577 125.415H24.6107C15.5436 125.415 7.77181 117.924 7.77181 109.184V24.2865C6.47651 14.2984 14.2483 6.80744 24.6107 6.80744Z" fill="#DADADA"/>
<circle cx="96.4999" cy="65.5605" r="10.3393" fill="#DADADA"/>
<circle cx="130.964" cy="65.5605" r="10.3393" fill="#DADADA"/>
<circle cx="62.0358" cy="65.5605" r="10.3393" fill="#DADADA"/>
</svg>
