<svg width="168" height="168" viewBox="0 0 168 168" fill="none" xmlns="http://www.w3.org/2000/svg">
<path d="M165.898 155.951L139.259 129.786C152.766 114.664 159.823 95.0028 158.961 74.8941C158.099 54.7854 149.384 35.7781 134.63 21.8281C119.876 7.87798 100.219 0.0596914 79.7505 0.000340388C59.282 -0.0590107 39.5787 7.64515 24.7411 21.5094C9.90346 35.3737 1.07454 54.3301 0.0917855 74.4334C-0.890971 94.5368 6.04813 114.238 19.4649 129.438C32.8818 144.638 51.7428 154.165 72.1226 156.036C92.5024 157.908 112.831 151.979 128.878 139.485L155.747 165.933C156.413 166.588 157.204 167.108 158.075 167.463C158.946 167.817 159.88 168 160.822 168C161.765 168 162.698 167.817 163.569 167.463C164.44 167.108 165.231 166.588 165.898 165.933C166.564 165.277 167.093 164.499 167.454 163.643C167.814 162.787 168 161.869 168 160.942C168 160.015 167.814 159.097 167.454 158.241C167.093 157.385 166.564 156.607 165.898 155.951ZM14.6655 78.3561C14.6655 65.7138 18.478 53.3555 25.621 42.8439C32.764 32.3322 42.9166 24.1394 54.795 19.3014C66.6733 14.4635 79.7439 13.1976 92.3539 15.664C104.964 18.1304 116.547 24.2182 125.638 33.1576C134.73 42.097 140.921 53.4865 143.429 65.8859C145.937 78.2852 144.65 91.1374 139.73 102.817C134.81 114.497 126.478 124.48 115.787 131.504C105.097 138.528 92.5288 142.276 79.6718 142.276C62.4381 142.254 45.9167 135.512 33.7305 123.53C21.5444 111.547 14.6883 95.3019 14.6655 78.3561Z" fill="#DADADA"/>
<path d="M78.5454 31.6362C58.5818 31.6362 42.5454 47.849 42.5454 68.0323C42.5454 95.8257 75.2727 122.296 76.5818 123.619C77.8909 124.612 79.5272 124.612 80.509 123.619C81.8181 122.296 114.545 95.8257 114.545 68.0323C114.545 47.849 98.509 31.6362 78.5454 31.6362ZM78.5454 84.576C69.3818 84.576 62.1818 77.2968 62.1818 68.0323C62.1818 58.7679 69.3818 51.4886 78.5454 51.4886C87.709 51.4886 94.909 58.7679 94.909 68.0323C94.909 77.2968 87.709 84.576 78.5454 84.576Z" fill="#DADADA"/>
</svg>
