<svg width="47" height="47" viewBox="0 0 47 47" fill="none" xmlns="http://www.w3.org/2000/svg">
<defs>
<linearGradient id="paint0_linear_1480_4390" x1="13.1054" y1="-9.1913e-05" x2="32.1886" y2="48.22" gradientUnits="userSpaceOnUse">
<stop stop-color="#66F2E5"/>
<stop offset="0.536458" stop-color="#FFBB22"/>
<stop offset="0.651042" stop-color="#FFAC1C"/>
<stop offset="0.802083" stop-color="#FF9311"/>
<stop offset="1" stop-color="#FF6A00"/>
</linearGradient>
</defs>
<path d="M43.7698 29.1705C46.546 18.5504 40.2957 7.71569 29.8093 4.9705C19.3229 2.22531 8.57136 8.60921 5.79513 19.2293C3.0189 29.8494 9.26923 40.6842 19.7556 43.4293C30.2421 46.1745 40.9936 39.7906 43.7698 29.1705Z" fill="url(#paint0_linear_1480_4390)"/>
<path d="M16.1502 23.559C17.2125 23.559 18.0736 22.6789 18.0736 21.5932C18.0736 20.5075 17.2125 19.6274 16.1502 19.6274C15.088 19.6274 14.2268 20.5075 14.2268 21.5932C14.2268 22.6789 15.088 23.559 16.1502 23.559Z" fill="#190A33"/>
<path d="M33.5345 23.559C34.5968 23.559 35.4579 22.6789 35.4579 21.5932C35.4579 20.5075 34.5968 19.6274 33.5345 19.6274C32.4722 19.6274 31.6111 20.5075 31.6111 21.5932C31.6111 22.6789 32.4722 23.559 33.5345 23.559Z" fill="#190A33"/>
<path fill-rule="evenodd" clip-rule="evenodd" d="M17.4577 29.8079C17.7193 29.4246 18.2419 29.3257 18.6255 29.5866L18.6266 29.5874L18.1524 30.2822C18.6266 29.5874 18.6266 29.5874 18.6266 29.5874L18.6259 29.587L18.6282 29.5885L18.6456 29.6C18.6623 29.6109 18.6894 29.6284 18.7262 29.6514C18.7999 29.6975 18.9125 29.7658 19.0604 29.8491C19.3564 30.0159 19.7914 30.2416 20.335 30.4694C21.4271 30.927 22.9301 31.3813 24.6126 31.4038C26.5748 31.43 28.064 30.9727 29.0526 30.5199C29.548 30.293 29.9185 30.0667 30.1598 29.902C30.2804 29.8197 30.3684 29.7529 30.4233 29.7095C30.4508 29.6877 30.4699 29.6718 30.4806 29.6627L30.4904 29.6544L30.4886 29.656L30.4881 29.6565C30.8334 29.3462 31.3648 29.3743 31.6754 29.7194C31.9862 30.0647 31.9583 30.5966 31.613 30.9074L31.0502 30.2822C31.613 30.9074 31.6124 30.9079 31.6124 30.9079L31.6117 30.9085L31.6102 30.9098L31.6067 30.913L31.597 30.9215C31.5894 30.9282 31.5795 30.9367 31.5674 30.9469C31.5433 30.9674 31.5101 30.9948 31.468 31.0282C31.3838 31.0949 31.2637 31.1854 31.1083 31.2915C30.7975 31.5036 30.3445 31.7785 29.7533 32.0494C28.5689 32.5919 26.8337 33.116 24.5901 33.086C22.6274 33.0597 20.9061 32.5327 19.6849 32.0211C19.0719 31.7643 18.5781 31.5084 18.2345 31.3148C18.0626 31.2179 17.9277 31.1363 17.8338 31.0776C17.7868 31.0482 17.75 31.0245 17.724 31.0074C17.7109 30.9988 17.7005 30.992 17.6929 30.9868L17.6834 30.9805L17.6803 30.9783L17.6786 30.9772C17.6786 30.9772 17.6781 30.9769 18.1524 30.2822L17.6786 30.9772C17.2949 30.7153 17.1957 30.1916 17.4577 29.8079Z" fill="#190A33"/>
</svg>
