<svg width="230" height="158" viewBox="0 0 230 158" fill="none" xmlns="http://www.w3.org/2000/svg">
<path d="M23.1686 0C9.74206 0 0 9.47874 0 22.41V102.697C0 114.498 9.74206 125.107 23.1686 125.107H108.474L141.385 156.996C142.634 158.188 145.069 158.188 146.256 156.996C146.256 156.996 147.505 155.803 147.505 154.61V125.107H158.496C170.673 125.107 181.664 115.628 181.664 102.697V22.41C180.415 9.47874 170.673 0 158.496 0H23.1686ZM23.1686 5.90067H158.496C167.051 5.90067 174.358 12.994 174.358 21.2801V101.567C174.358 109.853 167.051 116.946 158.496 116.946H143.883C142.634 116.946 140.198 118.139 140.198 120.462V146.45L112.159 119.269C110.91 118.076 109.723 118.076 109.723 118.076H23.1686C14.6131 118.076 7.30654 110.983 7.30654 102.697V22.41C6.12001 12.994 13.4266 5.90067 23.1686 5.90067Z" fill="#322580"/>
<path d="M129.457 40.8025H27.0404C24.2926 40.8025 22.0444 38.5427 22.0444 35.7806C22.0444 33.0186 24.2926 30.7588 27.0404 30.7588H129.457C132.205 30.7588 134.453 33.0186 134.453 35.7806C134.453 38.5427 132.205 40.8025 129.457 40.8025Z" fill="#322580"/>
<path d="M105.102 60.8902H26.4783C24.0428 60.8902 22.0444 58.8814 22.0444 56.4333V55.2406C22.0444 52.7924 24.0428 50.7837 26.4783 50.7837H105.102C107.537 50.7837 109.536 52.7924 109.536 55.2406V56.4333C109.473 58.8814 107.475 60.8902 105.102 60.8902Z" fill="#322580"/>
<path d="M70.505 80.9775H25.4792C23.6057 80.9775 22.1069 79.4709 22.1069 77.5878V74.3863C22.1069 72.5031 23.6057 70.9966 25.4792 70.9966H70.505C72.3785 70.9966 73.8772 72.5031 73.8772 74.3863V77.5878C73.8772 79.4709 72.3785 80.9775 70.505 80.9775Z" fill="#322580"/>
<path d="M182.398 100.205C204.157 100.205 221.796 82.474 221.796 60.6023C221.796 38.7305 204.157 21 182.398 21C160.639 21 143 38.7305 143 60.6023C143 82.474 160.639 100.205 182.398 100.205Z" fill="#2ECC71"/>
<path d="M207.02 52.1664L180.636 78.6872L177.433 81.9065C176.468 82.8774 175.044 83.0818 173.875 82.5197C173.773 82.4686 173.672 82.3664 173.57 82.2642L170.316 78.9938L156.082 64.6859C155.066 63.6639 155.066 61.9776 156.082 60.9556L158.929 58.094C159.946 57.072 161.623 57.072 162.64 58.094L175.349 70.869L200.513 45.5746C201.733 44.3482 203.766 44.3482 204.987 45.5746L207.071 47.6697C208.24 48.8961 208.24 50.889 207.02 52.1664Z" fill="white"/>
<path d="M207.02 52.1664L180.636 78.6872L177.433 81.9065C176.468 82.8774 175.044 83.0818 173.875 82.5197C173.773 82.4686 173.672 82.3664 173.57 82.2642L170.316 78.9938L156.082 64.6859C155.066 63.6639 155.066 61.9776 156.082 60.9556L158.929 58.094C159.946 57.072 161.623 57.072 162.64 58.094L175.349 70.869L200.513 45.5746C201.733 44.3482 203.766 44.3482 204.987 45.5746L207.071 47.6697C208.24 48.8961 208.24 50.889 207.02 52.1664Z" fill="white"/>
</svg>
