<svg width="117" height="103" viewBox="0 0 117 103" fill="none" xmlns="http://www.w3.org/2000/svg">
<g filter="url(#filter0_i_1423_4362)">
<path fill-rule="evenodd" clip-rule="evenodd" d="M65.0182 4C61.939 -1.33333 54.241 -1.33333 51.1618 4L1.08373 90.7377C-1.99547 96.0711 1.85353 102.738 8.01194 102.738H108.168C114.326 102.738 118.175 96.0711 115.096 90.7377L65.0182 4ZM64.7429 39.5318C64.8657 36.6883 62.5936 34.316 59.7475 34.316H56.7753C53.9292 34.316 51.6571 36.6883 51.7799 39.5318L53.0048 67.8885H58.2614H63.5181L64.7429 39.5318ZM53.0773 84.0089C54.479 85.2237 56.2675 85.8312 58.4427 85.8312C60.5695 85.8312 62.3096 85.2237 63.6631 84.0089C65.0648 82.7473 65.7657 81.2053 65.7657 79.383C65.7657 77.514 65.0648 75.9487 63.6631 74.6871C62.3096 73.4255 60.5695 72.7947 58.4427 72.7947C56.2675 72.7947 54.479 73.4255 53.0773 74.6871C51.7238 75.9487 51.0471 77.514 51.0471 79.383C51.0471 81.2053 51.7238 82.7473 53.0773 84.0089Z" fill="url(#paint0_linear_1423_4362)"/>
</g>
<defs>
<filter id="filter0_i_1423_4362" x="0" y="0" width="116.18" height="106.738" filterUnits="userSpaceOnUse" color-interpolation-filters="sRGB">
<feFlood flood-opacity="0" result="BackgroundImageFix"/>
<feBlend mode="normal" in="SourceGraphic" in2="BackgroundImageFix" result="shape"/>
<feColorMatrix in="SourceAlpha" type="matrix" values="0 0 0 0 0 0 0 0 0 0 0 0 0 0 0 0 0 0 127 0" result="hardAlpha"/>
<feOffset dy="4"/>
<feGaussianBlur stdDeviation="2"/>
<feComposite in2="hardAlpha" operator="arithmetic" k2="-1" k3="1"/>
<feColorMatrix type="matrix" values="0 0 0 0 0 0 0 0 0 0 0 0 0 0 0 0 0 0 0.25 0"/>
<feBlend mode="normal" in2="shape" result="effect1_innerShadow_1423_4362"/>
</filter>
<linearGradient id="paint0_linear_1423_4362" x1="-4.60177e-07" y1="71" x2="116" y2="70" gradientUnits="userSpaceOnUse">
<stop stop-color="#FFB80E"/>
<stop offset="1" stop-color="#FF9612"/>
</linearGradient>
</defs>
</svg>
