<svg width="169" height="168" viewBox="0 0 169 168" fill="none" xmlns="http://www.w3.org/2000/svg">
<path d="M166.398 155.951L139.759 129.786C153.266 114.664 160.323 95.0028 159.461 74.8941C158.599 54.7854 149.884 35.7781 135.13 21.8281C120.376 7.87798 100.719 0.0596914 80.2505 0.000340388C59.782 -0.0590107 40.0787 7.64515 25.2411 21.5094C10.4035 35.3737 1.57454 54.3301 0.591785 74.4334C-0.390971 94.5368 6.54813 114.238 19.9649 129.438C33.3818 144.638 52.2428 154.165 72.6226 156.036C93.0024 157.908 113.331 151.979 129.378 139.485L156.247 165.933C156.913 166.588 157.704 167.108 158.575 167.463C159.446 167.817 160.38 168 161.322 168C162.265 168 163.198 167.817 164.069 167.463C164.94 167.108 165.731 166.588 166.398 165.933C167.064 165.277 167.593 164.499 167.954 163.643C168.314 162.787 168.5 161.869 168.5 160.942C168.5 160.015 168.314 159.097 167.954 158.241C167.593 157.385 167.064 156.607 166.398 155.951ZM15.1655 78.3561C15.1655 65.7138 18.978 53.3555 26.121 42.8439C33.264 32.3322 43.4166 24.1394 55.295 19.3014C67.1733 14.4635 80.2439 13.1976 92.8539 15.664C105.464 18.1304 117.047 24.2182 126.138 33.1576C135.23 42.097 141.421 53.4865 143.929 65.8859C146.437 78.2852 145.15 91.1374 140.23 102.817C135.31 114.497 126.978 124.48 116.287 131.504C105.597 138.528 93.0288 142.276 80.1718 142.276C62.9381 142.254 46.4167 135.512 34.2305 123.53C22.0444 111.547 15.1883 95.3019 15.1655 78.3561Z" fill="#C1BDCC"/>
</svg>
