<svg width="15" height="15" viewBox="0 0 15 15" fill="none" xmlns="http://www.w3.org/2000/svg">
<path d="M7.5 0C3.35753 0 0 3.35753 0 7.5C0 11.6425 3.35753 15 7.5 15C11.6425 15 15 11.6425 15 7.5C15 3.35753 11.6425 0 7.5 0ZM7.5 13.5616C5.88082 13.5616 4.36027 12.9329 3.2137 11.7863C2.06712 10.6397 1.43836 9.11918 1.43836 7.5C1.43836 5.88082 2.06712 4.36027 3.2137 3.2137C4.36027 2.06712 5.88082 1.43836 7.5 1.43836C9.11918 1.43836 10.6397 2.06712 11.7863 3.2137C12.9329 4.36027 13.5616 5.88082 13.5616 7.5C13.5616 9.11918 12.9329 10.6397 11.7863 11.7863C10.6397 12.9329 9.11918 13.5616 7.5 13.5616Z" fill="#190A33"/>
<path d="M8.04638 3.34961H6.95323C6.80118 3.34961 6.67789 3.4729 6.67789 3.62495V6.67838H3.62446C3.47241 6.67838 3.34912 6.80166 3.34912 6.95372V8.04687C3.34912 8.19892 3.47241 8.32221 3.62446 8.32221H6.67789V11.3756C6.67789 11.5277 6.80118 11.651 6.95323 11.651H8.04638C8.19844 11.651 8.32172 11.5277 8.32172 11.3756V8.32221H11.3751C11.5272 8.32221 11.6505 8.19892 11.6505 8.04687V6.95372C11.6505 6.80166 11.5272 6.67838 11.3751 6.67838H8.32172V3.62495C8.32172 3.4729 8.19844 3.34961 8.04638 3.34961Z" fill="#190A33"/>
</svg>
