<svg width="15" height="16" viewBox="0 0 15 16" fill="none" xmlns="http://www.w3.org/2000/svg">
<path d="M7.5016 0.897395C7.87351 0.897172 8.24486 0.926141 8.61224 0.984029V2.42564C8.61486 2.68099 8.69078 2.9302 8.83097 3.14364C8.97116 3.35708 9.16972 3.52575 9.40301 3.62958C9.69072 3.75801 9.96399 3.91661 10.2182 4.10271C10.446 4.26862 10.7205 4.35805 11.0023 4.35816C11.2307 4.35819 11.4551 4.29846 11.6532 4.1849L12.9015 3.4652C13.1047 3.71121 13.2896 3.97181 13.4546 4.24487L13.6323 4.55363C13.7785 4.82227 13.9062 5.10058 14.0144 5.38662L12.7838 6.09742C12.5602 6.22489 12.3783 6.41438 12.26 6.643C12.1417 6.87163 12.0922 7.12961 12.1174 7.38577C12.15 7.70332 12.15 8.02337 12.1174 8.34092C12.0922 8.59708 12.1417 8.85506 12.26 9.08368C12.3783 9.31231 12.5602 9.5018 12.7838 9.62926L14.0144 10.3401C13.9062 10.6261 13.7785 10.9044 13.6323 11.1731L13.4546 11.4818C13.2896 11.7549 13.1047 12.0155 12.9015 12.2615L11.6532 11.5418C11.4325 11.4144 11.1794 11.3541 10.9249 11.3683C10.6704 11.3825 10.4256 11.4706 10.2204 11.6218C9.96419 11.8078 9.68954 11.9671 9.40079 12.0971C9.16791 12.2013 8.96982 12.3701 8.83004 12.5835C8.69026 12.7969 8.61467 13.0459 8.61224 13.301V14.7404C8.24486 14.7983 7.87351 14.8273 7.5016 14.8271C7.12959 14.8276 6.75815 14.7978 6.39095 14.7382V13.2988C6.38852 13.0437 6.31293 12.7947 6.17315 12.5813C6.03337 12.3679 5.83528 12.1991 5.6024 12.0949C5.3152 11.9655 5.04203 11.8069 4.78718 11.6218C4.56001 11.4563 4.28634 11.3669 4.00529 11.3663C3.77662 11.366 3.55198 11.4266 3.35446 11.5418L2.10387 12.2615C1.63457 11.6836 1.25972 11.0351 0.993229 10.3401L2.22604 9.62705C2.44967 9.49959 2.63159 9.31009 2.74985 9.08147C2.8681 8.85284 2.91762 8.59486 2.89243 8.3387C2.87688 8.18099 2.86799 8.02106 2.86799 7.86335C2.86799 7.70564 2.86799 7.5457 2.89243 7.38799C2.91762 7.13183 2.8681 6.87385 2.74985 6.64523C2.63159 6.4166 2.44967 6.22711 2.22604 6.09965L0.991009 5.39772C1.25616 4.70201 1.63114 4.05331 2.10165 3.47631L3.35001 4.196C3.57074 4.32343 3.82383 4.38373 4.0783 4.36953C4.33276 4.35533 4.57757 4.26724 4.78274 4.11604C5.0393 3.92247 5.31552 3.75644 5.60684 3.62069C5.83972 3.51653 6.03781 3.34772 6.17759 3.13431C6.31737 2.9209 6.39297 2.67185 6.3954 2.41675V0.977365C6.76259 0.917738 7.13403 0.888024 7.50604 0.888515L7.5016 0.897395ZM7.50604 10.9087C8.04979 10.909 8.58377 10.7642 9.05283 10.4891C9.52188 10.2141 9.90899 9.81877 10.1742 9.34407C10.4394 8.86937 10.573 8.33247 10.5614 7.78884C10.5497 7.24521 10.3931 6.71456 10.1077 6.25169C9.82239 5.78882 9.41866 5.41052 8.93822 5.15586C8.45779 4.9012 7.91807 4.77942 7.37483 4.80309C6.83159 4.82676 6.30452 4.99503 5.84806 5.29052C5.3916 5.58601 5.0223 5.99799 4.7783 6.48393C4.23409 7.56348 4.38069 8.8496 5.17369 9.91804C5.25602 10.0314 5.35572 10.1311 5.46912 10.2135C6.05774 10.6543 6.77072 10.8977 7.50604 10.9087ZM7.50604 1.04042e-06C6.95355 -0.00028349 6.40257 0.0577918 5.86229 0.173261C5.76268 0.193587 5.67306 0.247455 5.60838 0.325879C5.5437 0.404304 5.50788 0.50254 5.50688 0.604191V2.41675C5.5046 2.50031 5.4788 2.58153 5.43243 2.65108C5.38607 2.72063 5.32102 2.77569 5.24477 2.80992C4.90057 2.96502 4.57309 3.15481 4.2674 3.37635C4.19206 3.43188 4.10111 3.4622 4.00751 3.46298C3.93507 3.46223 3.86399 3.44312 3.80093 3.40745L2.22604 2.51005C2.15885 2.47043 2.0819 2.45042 2.00391 2.45229C1.94101 2.4521 1.87877 2.46526 1.82133 2.49092C1.76389 2.51658 1.71256 2.55414 1.67072 2.60112C0.924453 3.42189 0.362472 4.39287 0.022529 5.44881C-0.00935004 5.54506 -0.00734483 5.64932 0.0282131 5.74428C0.063771 5.83924 0.130743 5.91917 0.218003 5.97081L1.7729 6.85932C1.84732 6.90176 1.90788 6.9648 1.94729 7.04087C1.9867 7.11693 2.00328 7.20277 1.99503 7.28804C1.97726 7.47462 1.96615 7.66343 1.96615 7.85446C1.96615 8.04549 1.96615 8.2343 1.99503 8.42089C2.00328 8.50615 1.9867 8.59199 1.94729 8.66805C1.90788 8.74412 1.84732 8.80716 1.7729 8.8496L0.218003 9.73811C0.130743 9.78975 0.063771 9.86968 0.0282131 9.96464C-0.00734483 10.0596 -0.00935004 10.1639 0.022529 10.2601C0.362472 11.3161 0.924453 12.287 1.67072 13.1078C1.71256 13.1548 1.76389 13.1923 1.82133 13.218C1.87877 13.2437 1.94101 13.2568 2.00391 13.2566C2.0819 13.2585 2.15885 13.2385 2.22604 13.1989L3.79871 12.2926C3.86138 12.256 3.93271 12.2368 4.00529 12.2371C4.09888 12.2378 4.18984 12.2682 4.26518 12.3237C4.5693 12.5458 4.89619 12.7349 5.24033 12.8879C5.31658 12.9221 5.38162 12.9772 5.42799 13.0467C5.47436 13.1163 5.50016 13.1975 5.50244 13.2811V15.0936C5.50344 15.1953 5.53926 15.2935 5.60394 15.3719C5.66862 15.4504 5.75824 15.5042 5.85785 15.5246C6.39813 15.64 6.94911 15.6981 7.5016 15.6978C8.05468 15.6976 8.60626 15.6403 9.14757 15.5268C9.24676 15.506 9.33587 15.4519 9.40011 15.3736C9.46435 15.2952 9.49986 15.1972 9.50075 15.0958V13.2833C9.50323 13.1995 9.52936 13.1181 9.57614 13.0485C9.62291 12.9789 9.68842 12.924 9.76508 12.8901C10.1093 12.735 10.4368 12.5452 10.7424 12.3237C10.8178 12.2682 10.9087 12.2378 11.0023 12.2371C11.0749 12.2368 11.1463 12.256 11.2089 12.2926L12.7771 13.1989C12.8446 13.238 12.9213 13.2587 12.9993 13.2588C13.0616 13.259 13.1233 13.246 13.1804 13.2208C13.2374 13.1955 13.2885 13.1585 13.3302 13.1122C13.6632 12.7426 13.9607 12.3425 14.2188 11.9172L14.4076 11.5884C14.6395 11.1632 14.8307 10.717 14.9784 10.2557C15.0096 10.1595 15.0069 10.0555 14.971 9.96102C14.935 9.86651 14.8679 9.7871 14.7807 9.73589L13.2258 8.84737C13.1514 8.80494 13.0909 8.74189 13.0515 8.66583C13.012 8.58977 12.9955 8.50394 13.0037 8.41867C13.0422 8.04055 13.0422 7.65949 13.0037 7.28137C12.9955 7.1961 13.012 7.11026 13.0515 7.0342C13.0909 6.95814 13.1514 6.89509 13.2258 6.85266L14.7807 5.96414C14.8679 5.91294 14.935 5.83352 14.971 5.73901C15.0069 5.64451 15.0096 5.54057 14.9784 5.44437C14.8307 4.98308 14.6395 4.53683 14.4076 4.11159L14.2188 3.78285C13.9607 3.35755 13.6632 2.95744 13.3302 2.5878C13.2885 2.5415 13.2374 2.50451 13.1804 2.47925C13.1233 2.45399 13.0616 2.44103 12.9993 2.44119C12.9213 2.44133 12.8446 2.46201 12.7771 2.50116L11.2089 3.40745C11.1457 3.44244 11.0746 3.46078 11.0023 3.46076C10.909 3.46063 10.8181 3.43109 10.7424 3.37635C10.4378 3.15316 10.1102 2.96327 9.76508 2.80992C9.68842 2.77601 9.62291 2.72109 9.57614 2.65152C9.52936 2.58194 9.50323 2.50055 9.50075 2.41675V0.601967C9.49986 0.500627 9.46435 0.402635 9.40011 0.324252C9.33587 0.24587 9.24676 0.191809 9.14757 0.171038C8.60626 0.0575227 8.05468 0.000208221 7.5016 1.04042e-06H7.50604ZM7.50604 10.0202C6.95767 10.0097 6.42696 9.82451 5.99112 9.49155C5.95056 9.46392 5.91521 9.42933 5.88672 9.38937C4.57838 7.61234 5.82453 5.68871 7.50604 5.68871C8.08043 5.68871 8.6313 5.91689 9.03746 6.32304C9.44361 6.7292 9.67179 7.28007 9.67179 7.85446C9.67179 8.42885 9.44361 8.97972 9.03746 9.38588C8.6313 9.79204 8.08043 10.0202 7.50604 10.0202Z" fill="#190A33"/>
</svg>
