<svg width="12" height="15" viewBox="0 0 12 15" fill="none" xmlns="http://www.w3.org/2000/svg">
<path d="M9.85641 7.44527V13.7558H1.2441V7.44527H9.85641ZM5.55897 0C4.44797 0.000268414 3.38 0.429559 2.57789 1.19828C1.77579 1.967 1.30152 3.01577 1.25405 4.12575C1.25405 4.18298 1.25405 4.24022 1.25405 4.29745V6.1936H1.07738C0.792934 6.1936 0.520143 6.3066 0.319011 6.50773C0.117879 6.70886 0.00488281 6.98165 0.00488281 7.26609V13.93C0.00554178 14.214 0.118827 14.4862 0.319888 14.6868C0.520948 14.8874 0.793365 15 1.07738 15H10.0356C10.3196 15 10.592 14.8874 10.7931 14.6868C10.9941 14.4862 11.1074 14.214 11.1081 13.93V7.27357C11.1081 6.98912 10.9951 6.71632 10.7939 6.51519C10.5928 6.31406 10.32 6.20107 10.0356 6.20107H9.87881V4.30491C9.87881 4.24767 9.87881 4.19046 9.87881 4.13322C9.83259 3.02171 9.3586 1.97104 8.5559 1.2008C7.7532 0.43056 6.68388 0.000323334 5.57141 0H5.55897ZM2.21457 6.20107V4.30491C2.23834 3.43338 2.60126 2.60554 3.22609 1.99751C3.85093 1.38949 4.68836 1.04929 5.56021 1.04929C6.43206 1.04929 7.26949 1.38949 7.89433 1.99751C8.51917 2.60554 8.88208 3.43338 8.90585 4.30491V6.20107H2.21457Z" fill="#190A33"/>
</svg>
