<svg width="16" height="16" viewBox="0 0 16 16" fill="none" xmlns="http://www.w3.org/2000/svg">
<g clip-path="url(#clip0_1050_3722)">
<path d="M8.00211 0C6.41944 0 4.87232 0.469196 3.55638 1.34825C2.24044 2.2273 1.21479 3.47674 0.609127 4.93855C0.00346656 6.40036 -0.155001 8.00888 0.153762 9.56073C0.462525 11.1126 1.22465 12.538 2.34377 13.6569C3.46288 14.7757 4.88871 15.5376 6.44097 15.8463C7.99323 16.155 9.60219 15.9965 11.0644 15.391C12.5266 14.7855 13.7763 13.7602 14.6556 12.4446C15.5349 11.129 16.0042 9.58225 16.0042 8C16.0042 5.87827 15.1611 3.84345 13.6605 2.34316C12.1598 0.842868 10.1244 0 8.00211 0ZM8.00211 14.859C6.64518 14.859 5.31873 14.4567 4.19048 13.703C3.06224 12.9494 2.18288 11.8781 1.6636 10.6248C1.14433 9.37151 1.00846 7.99241 1.27318 6.6619C1.53791 5.3314 2.19133 4.10925 3.15082 3.15001C4.11032 2.19076 5.33279 1.5375 6.66365 1.27285C7.9945 1.00819 9.37397 1.14403 10.6276 1.66316C11.8812 2.1823 12.9528 3.06143 13.7066 4.18938C14.4605 5.31732 14.8629 6.64343 14.8629 8C14.8606 9.81842 14.1371 11.5617 12.8509 12.8476C11.5648 14.1334 9.82101 14.8567 8.00211 14.859Z" fill="#190A33"/>
<path d="M8.00207 5.94531C7.84681 5.94531 7.6979 6.00699 7.58811 6.11675C7.47833 6.22651 7.41666 6.37536 7.41666 6.53058V11.3601C7.40979 11.4408 7.41977 11.5221 7.44596 11.5988C7.47216 11.6755 7.51399 11.7459 7.56882 11.8056C7.62366 11.8653 7.69029 11.9129 7.76451 11.9455C7.83872 11.9781 7.9189 11.9949 7.99996 11.9949C8.08102 11.9949 8.1612 11.9781 8.23541 11.9455C8.30963 11.9129 8.37626 11.8653 8.4311 11.8056C8.48593 11.7459 8.52778 11.6755 8.55397 11.5988C8.58017 11.5221 8.59014 11.4408 8.58328 11.3601V6.53058C8.58383 6.45392 8.5692 6.37791 8.54024 6.30692C8.51128 6.23594 8.46857 6.17141 8.41454 6.11701C8.36052 6.06261 8.29625 6.01942 8.22546 5.98995C8.15467 5.96049 8.07875 5.94531 8.00207 5.94531Z" fill="#190A33"/>
<path d="M7.82943 4.06775C7.69057 4.10785 7.56767 4.19024 7.47784 4.30344C7.38801 4.41664 7.33571 4.55503 7.32824 4.69933C7.32658 4.78725 7.34227 4.87462 7.37439 4.95648C7.40651 5.03834 7.45444 5.11307 7.51545 5.17641C7.57646 5.23975 7.64935 5.29047 7.72996 5.32564C7.81057 5.36082 7.89732 5.37978 7.98526 5.38144C8.0732 5.3831 8.1606 5.36742 8.24248 5.33531C8.32436 5.3032 8.39912 5.25526 8.46247 5.19427C8.52583 5.13328 8.57655 5.06043 8.61173 4.97984C8.64692 4.89925 8.66589 4.81251 8.66755 4.7246C8.66979 4.62131 8.64793 4.51891 8.60371 4.42554C8.5595 4.33216 8.49414 4.25035 8.41281 4.18661C8.33148 4.12287 8.23642 4.07895 8.13516 4.05832C8.0339 4.03769 7.92922 4.04092 7.82943 4.06775Z" fill="#190A33"/>
</g>
<defs>
<clipPath id="clip0_1050_3722">
<rect width="16" height="16" fill="white"/>
</clipPath>
</defs>
</svg>
