<svg width="25" height="22" viewBox="0 0 25 22" fill="none" xmlns="http://www.w3.org/2000/svg">
<path d="M22.868 1.45985C23.0556 1.45985 23.2354 1.53676 23.3681 1.67364C23.5007 1.81053 23.5752 1.99619 23.5752 2.18978V16.0328C23.5752 16.2264 23.5007 16.4121 23.3681 16.549C23.2354 16.6859 23.0556 16.7628 22.868 16.7628H7.64743L7.25852 17.0912L5.07 18.938V18.208V16.7482H2.12134C1.9338 16.7482 1.75394 16.6713 1.62134 16.5344C1.48873 16.3975 1.41423 16.2118 1.41423 16.0182V2.18978C1.41423 1.99619 1.48873 1.81053 1.62134 1.67364C1.75394 1.53676 1.9338 1.45985 2.12134 1.45985H22.8787H22.868ZM22.8787 0H2.12134C1.55873 0 1.01915 0.230707 0.621325 0.64137C0.223496 1.05203 0 1.60901 0 2.18978V16.0328C0 16.6136 0.223496 17.1706 0.621325 17.5813C1.01915 17.9919 1.55873 18.2226 2.12134 18.2226H3.65931L3.68759 22L8.16362 18.2226H22.8787C23.4413 18.2226 23.9808 17.9919 24.3787 17.5813C24.7765 17.1706 25 16.6136 25 16.0328V2.18978C25 1.60901 24.7765 1.05203 24.3787 0.64137C23.9808 0.230707 23.4413 0 22.8787 0Z" fill="#5C45ED"/>
<path d="M17.943 11.4492H4.32046C4.14605 11.4492 3.97878 11.5207 3.85545 11.648C3.73213 11.7754 3.66284 11.948 3.66284 12.1281V12.2339C3.66284 12.3229 3.67987 12.411 3.71297 12.4931C3.74606 12.5753 3.79455 12.6499 3.85566 12.7126C3.91678 12.7754 3.9893 12.825 4.06906 12.8587C4.14883 12.8924 4.23427 12.9096 4.32046 12.9091H17.943C18.1165 12.9091 18.2828 12.8379 18.4055 12.7113C18.5282 12.5847 18.5971 12.413 18.5971 12.2339V12.1281C18.5971 11.9486 18.5283 11.7765 18.4057 11.6493C18.2832 11.5221 18.1168 11.4502 17.943 11.4492Z" fill="#5C45ED"/>
<path d="M16.1681 5.2666H4.27803C4.11487 5.2666 3.95839 5.33351 3.84302 5.4526C3.72765 5.5717 3.66284 5.73322 3.66284 5.90164V6.09142C3.66284 6.25984 3.72765 6.42137 3.84302 6.54046C3.95839 6.65955 4.11487 6.72645 4.27803 6.72645H16.1681C16.3313 6.72645 16.4878 6.65955 16.6032 6.54046C16.7185 6.42137 16.7833 6.25984 16.7833 6.09142V5.90164C16.7833 5.73322 16.7185 5.5717 16.6032 5.4526C16.4878 5.33351 16.3313 5.2666 16.1681 5.2666Z" fill="#5C45ED"/>
<path d="M20.6053 8.36914H4.36996C4.18242 8.36914 4.00256 8.44604 3.86995 8.58293C3.73734 8.71982 3.66284 8.90548 3.66284 9.09907C3.66284 9.29266 3.73734 9.47832 3.86995 9.6152C4.00256 9.75209 4.18242 9.82899 4.36996 9.82899H20.6053C20.7928 9.82899 20.9727 9.75209 21.1053 9.6152C21.2379 9.47832 21.3124 9.29266 21.3124 9.09907C21.3124 8.90548 21.2379 8.71982 21.1053 8.58293C20.9727 8.44604 20.7928 8.36914 20.6053 8.36914Z" fill="#5C45ED"/>
</svg>
