<svg width="15" height="16" viewBox="0 0 15 16" fill="none" xmlns="http://www.w3.org/2000/svg">
<g clip-path="url(#clip0_1050_3704)">
<path d="M10.2492 1.50356e-06C9.36334 -0.000703754 8.49498 0.24671 7.74251 0.714216C6.99004 1.18172 6.38355 1.85063 5.99175 2.64515C5.59994 3.43967 5.43849 4.32804 5.52569 5.20961C5.61289 6.09118 5.94524 6.93072 6.4851 7.63309L6.44746 7.66266L0.204408 13.9057C0.0821353 14.0327 0.0146158 14.2025 0.0163916 14.3788C0.0181673 14.555 0.0890957 14.7235 0.213901 14.848C0.338707 14.9724 0.507401 15.0429 0.683648 15.0442C0.859896 15.0454 1.0296 14.9774 1.15619 14.8548L2.10798 13.895L2.60538 14.3924C2.66729 14.4566 2.74139 14.508 2.82334 14.5433C2.9053 14.5786 2.99347 14.5973 3.08271 14.5982C3.17196 14.5991 3.26049 14.5822 3.34314 14.5485C3.42579 14.5148 3.50091 14.465 3.56411 14.402C3.6273 14.339 3.67732 14.264 3.71124 14.1815C3.74515 14.0989 3.76228 14.0104 3.76164 13.9212C3.76099 13.8319 3.74258 13.7437 3.70747 13.6617C3.67236 13.5796 3.62126 13.5054 3.55716 13.4433L3.05976 12.9432L7.39118 8.61176L7.42882 8.56874C8.0329 9.0145 8.73408 9.31067 9.4748 9.43294C10.2155 9.5552 10.9747 9.50007 11.69 9.27209C12.4053 9.04411 13.0563 8.64977 13.5897 8.12142C14.123 7.59307 14.5235 6.94578 14.7582 6.23267C14.9929 5.51956 15.0552 4.76095 14.9399 4.01911C14.8247 3.27726 14.5351 2.57332 14.0951 1.96506C13.655 1.3568 13.077 0.861559 12.4085 0.519968C11.74 0.178377 11 0.000181096 10.2492 1.50356e-06ZM10.2492 8.16006C9.5754 8.15793 8.91733 7.95618 8.3581 7.58029C7.79888 7.20439 7.36358 6.6712 7.10719 6.04806C6.85081 5.42492 6.78483 4.73979 6.91758 4.07918C7.05034 3.41856 7.37588 2.8121 7.85309 2.33639C8.33031 1.86068 8.93779 1.53705 9.59881 1.40638C10.2598 1.2757 10.9448 1.34384 11.5671 1.60219C12.1894 1.86054 12.7212 2.2975 13.0954 2.85791C13.4695 3.41832 13.6692 4.07703 13.6692 4.75085C13.6685 5.19926 13.5795 5.64314 13.4072 6.05714C13.235 6.47115 12.9828 6.84718 12.6653 7.16375C12.3477 7.48033 11.9709 7.73125 11.5563 7.9022C11.1418 8.07314 10.6976 8.16077 10.2492 8.16006Z" fill="#190A33"/>
</g>
<defs>
<clipPath id="clip0_1050_3704">
<rect width="15" height="15.0538" fill="white"/>
</clipPath>
</defs>
</svg>
