<svg width="15" height="17" viewBox="0 0 15 17" fill="none" xmlns="http://www.w3.org/2000/svg">
<path d="M7.5 1C3.35753 1 0 4.35753 0 8.5C0 12.6425 3.35753 16 7.5 16C11.6425 16 15 12.6425 15 8.5C15 4.35753 11.6425 1 7.5 1ZM7.5 14.5616C5.88082 14.5616 4.36027 13.9329 3.2137 12.7863C2.06712 11.6397 1.43836 10.1192 1.43836 8.5C1.43836 6.88082 2.06712 5.36027 3.2137 4.2137C4.36027 3.06712 5.88082 2.43836 7.5 2.43836C9.11918 2.43836 10.6397 3.06712 11.7863 4.2137C12.9329 5.36027 13.5616 6.88082 13.5616 8.5C13.5616 10.1192 12.9329 11.6397 11.7863 12.7863C10.6397 13.9329 9.11918 14.5616 7.5 14.5616Z" fill="#190A33"/>
<path d="M8.04638 4.34961H6.95323C6.80118 4.34961 6.67789 4.4729 6.67789 4.62495V7.67838H3.62446C3.47241 7.67838 3.34912 7.80166 3.34912 7.95372V9.04687C3.34912 9.19892 3.47241 9.32221 3.62446 9.32221H6.67789V12.3756C6.67789 12.5277 6.80118 12.651 6.95323 12.651H8.04638C8.19844 12.651 8.32172 12.5277 8.32172 12.3756V9.32221H11.3751C11.5272 9.32221 11.6505 9.19892 11.6505 9.04687V7.95372C11.6505 7.80166 11.5272 7.67838 11.3751 7.67838H8.32172V4.62495C8.32172 4.4729 8.19844 4.34961 8.04638 4.34961Z" fill="#190A33"/>
</svg>
