<svg width="18" height="15" viewBox="0 0 18 15" fill="none" xmlns="http://www.w3.org/2000/svg">
<g clip-path="url(#clip0_1050_3728)">
<path d="M13.1128 6.15233C13.5548 5.93829 13.9423 5.62649 14.246 5.24055C14.5497 4.85461 14.7616 4.40465 14.8657 3.92471C14.9698 3.44477 14.9633 2.94744 14.8468 2.47037C14.7303 1.9933 14.5068 1.54899 14.1932 1.17106C13.8796 0.793142 13.4841 0.491514 13.0367 0.289016C12.5893 0.086519 12.1017 -0.0115415 11.6108 0.00225447C11.1199 0.0160505 10.6385 0.141346 10.2032 0.368651C9.76789 0.595956 9.38999 0.91931 9.0981 1.31425C9.28581 1.55736 9.44321 1.82243 9.56685 2.10359C9.81359 1.63602 10.2062 1.26173 10.685 1.03754C11.1637 0.813357 11.7026 0.75152 12.2197 0.861421C12.7369 0.971322 13.204 1.24696 13.5503 1.64648C13.8965 2.04601 14.1029 2.5476 14.1382 3.0751C14.1735 3.60261 14.0357 4.12722 13.7457 4.56928C13.4557 5.01134 13.0294 5.3467 12.5315 5.52447C12.0336 5.70223 11.4913 5.71268 10.9869 5.55423C10.4826 5.39577 10.0437 5.07707 9.73686 4.6465C9.652 4.94417 9.53129 5.23043 9.3774 5.499C9.6333 5.75953 9.93034 5.97616 10.2566 6.14019C9.72814 6.27875 9.22371 6.49656 8.7605 6.78624C9.04969 6.92612 9.32742 7.08854 9.59114 7.27199C10.3084 6.91766 11.1043 6.75231 11.9033 6.79159C12.7024 6.83086 13.4782 7.07347 14.1572 7.49643C14.8363 7.91939 15.3962 8.50869 15.7838 9.20854C16.1714 9.90838 16.3739 10.6956 16.3722 11.4956C16.3722 12.1465 14.6721 12.8678 12.1802 12.9529C12.0535 13.2792 11.8433 13.5665 11.5706 13.7859H11.6629C14.4292 13.7859 17.1956 13.0233 17.1956 11.4932C17.1959 10.2782 16.7963 9.09684 16.0584 8.13156C15.3205 7.16629 14.2854 6.47075 13.1128 6.15233V6.15233Z" fill="#190A33"/>
<path d="M7.42713 6.88041C8.12824 6.54056 8.69362 5.97333 9.03117 5.27112C9.36872 4.5689 9.45854 3.77307 9.28602 3.01328C9.1135 2.25349 8.68879 1.5745 8.08108 1.08692C7.47337 0.599341 6.71846 0.331902 5.93934 0.328165C5.16021 0.324428 4.40278 0.584617 3.79042 1.06635C3.17806 1.54807 2.74686 2.22296 2.56706 2.98106C2.38725 3.73916 2.46944 4.53581 2.80024 5.24123C3.13103 5.94665 3.69094 6.51928 4.38876 6.86584C3.13099 7.19647 2.01817 7.93442 1.22415 8.96439C0.430143 9.99437 -0.000327631 11.2583 1.87095e-07 12.5588C1.87095e-07 14.1837 2.94122 14.9876 5.88487 14.9876C8.82853 14.9876 11.7698 14.1764 11.7698 12.5588C11.7692 11.267 11.3437 10.0112 10.559 8.98506C9.7742 7.95891 8.67371 7.21936 7.42713 6.88041V6.88041ZM3.35168 3.78132C3.35168 3.27261 3.50253 2.77533 3.78515 2.35236C4.06777 1.92939 4.46947 1.59972 4.93945 1.40505C5.40943 1.21038 5.92659 1.15944 6.42552 1.25869C6.92445 1.35793 7.38274 1.60289 7.74245 1.9626C8.10216 2.32231 8.34713 2.7806 8.44637 3.27953C8.54561 3.77846 8.49467 4.29562 8.3 4.7656C8.10533 5.23558 7.77566 5.63728 7.35269 5.9199C6.92972 6.20252 6.43244 6.35337 5.92373 6.35337C5.2422 6.35273 4.58873 6.08187 4.10658 5.60019C3.62444 5.1185 3.35297 4.46528 3.35168 3.78375V3.78132ZM5.88487 14.1205C2.93393 14.1205 0.876778 13.2972 0.876778 12.5588C0.876778 11.2306 1.40442 9.95679 2.34362 9.01759C3.28282 8.07839 4.55664 7.55075 5.88487 7.55075C7.2131 7.55075 8.48693 8.07839 9.42613 9.01759C10.3653 9.95679 10.893 11.2306 10.893 12.5588C10.893 13.2996 8.83581 14.123 5.88487 14.123V14.1205Z" fill="#190A33"/>
</g>
<defs>
<clipPath id="clip0_1050_3728">
<rect width="17.1956" height="15" fill="white"/>
</clipPath>
</defs>
</svg>
