<svg width="20" height="20" viewBox="0 0 20 20" fill="none" xmlns="http://www.w3.org/2000/svg">
<path d="M18.7991 0H1.21787C0.55463 0 0.0169678 0.537251 0.0169678 1.19998C0.0169678 1.86272 0.55463 2.39997 1.21787 2.39997H18.7991C19.4623 2.39997 20 1.86272 20 1.19998C20 0.537251 19.4623 0 18.7991 0Z" fill="#190A33"/>
<path d="M18.7982 5.86816H4.18723C3.52399 5.86816 2.98633 6.40541 2.98633 7.06815C2.98633 7.73088 3.52399 8.26813 4.18723 8.26813H18.7982C19.4614 8.26813 19.9991 7.73088 19.9991 7.06815C19.9991 6.40541 19.4614 5.86816 18.7982 5.86816Z" fill="#190A33"/>
<path d="M18.7821 11.7314H1.2009C0.537662 11.7314 0 12.2687 0 12.9314C0 13.5942 0.537662 14.1314 1.2009 14.1314H18.7821C19.4454 14.1314 19.983 13.5942 19.983 12.9314C19.983 12.2687 19.4454 11.7314 18.7821 11.7314Z" fill="#190A33"/>
<path d="M18.7821 17.5996H4.17112C3.50788 17.5996 2.97021 18.1369 2.97021 18.7996C2.97021 19.4623 3.50788 19.9996 4.17112 19.9996H18.7821C19.4453 19.9996 19.983 19.4623 19.983 18.7996C19.983 18.1369 19.4453 17.5996 18.7821 17.5996Z" fill="#190A33"/>
</svg>
