<svg width="17" height="17" viewBox="0 0 17 17" fill="none" xmlns="http://www.w3.org/2000/svg">
<path d="M14.7212 2.27956C15.6994 3.25779 15.6994 4.84381 14.7212 5.82203L6.34339 14.1999C6.14957 14.3936 5.90854 14.5336 5.6441 14.6057L2.06312 15.5823C1.67121 15.6892 1.3116 15.3295 1.41848 14.9377L2.39512 11.3567C2.46724 11.0922 2.60711 10.8512 2.80093 10.6574L11.1788 2.27956C12.157 1.30134 13.743 1.30134 14.7212 2.27956ZM10.5001 4.4432L3.54339 11.3999C3.47879 11.4645 3.43216 11.5448 3.40812 11.633L2.67323 14.3276L5.36784 13.5926C5.45598 13.5686 5.53633 13.522 5.60093 13.4574L12.5574 6.5005L10.5001 4.4432ZM11.9212 3.02203L11.2421 3.7005L13.2994 5.7585L13.9788 5.07957C14.5469 4.5114 14.5469 3.5902 13.9788 3.02203C13.4106 2.45386 12.4894 2.45386 11.9212 3.02203Z" fill="white"/>
</svg>
