<svg width="24" height="26" viewBox="0 0 24 26" fill="none" xmlns="http://www.w3.org/2000/svg">
<path d="M4.24943e-08 22.6977V8.44633C-7.8288e-05 8.0392 0.108135 7.63787 0.315766 7.27523C0.523397 6.91259 0.82452 6.59898 1.19445 6.36014L10.307 0.483603C10.7983 0.169145 11.3879 0 11.9928 0C12.5976 0 13.1872 0.169145 13.6785 0.483603L22.7911 6.36014C23.1637 6.59759 23.4676 6.91059 23.6778 7.27331C23.888 7.63603 23.9984 8.03809 24 8.44633V22.6977C24 23.3808 23.6955 24.0359 23.1536 24.5189C22.6116 25.0019 21.8766 25.2732 21.1102 25.2732H14.8489C14.6906 25.2738 14.5337 25.2464 14.3873 25.1927C14.241 25.139 14.108 25.0599 13.996 24.9602C13.8841 24.8604 13.7954 24.7419 13.7352 24.6114C13.6749 24.481 13.6442 24.3412 13.6448 24.2001V17.3706C13.6448 16.7696 12.6334 16.2889 11.9591 16.2974C11.304 16.2974 10.2974 16.7825 10.2974 17.3706V24.2001C10.2961 24.3425 10.2634 24.4833 10.2009 24.6144C10.1384 24.7455 10.0475 24.8643 9.93341 24.964C9.8193 25.0637 9.68422 25.1424 9.53592 25.1954C9.38762 25.2485 9.22902 25.2749 9.06923 25.2732H2.86091C2.0995 25.2664 1.37188 24.9921 0.836164 24.5098C0.30045 24.0275 -3.80309e-05 23.3763 4.24943e-08 22.6977Z" fill="#7C68F0"/>
</svg>
