<svg width="24" height="21" viewBox="0 0 24 21" fill="none" xmlns="http://www.w3.org/2000/svg">
<path d="M21.9635 0H2.03649C1.49638 0 0.978387 0.22022 0.596472 0.612217C0.214556 1.00421 0 1.53588 0 2.09025V15.3041C0 15.8585 0.214556 16.3901 0.596472 16.7821C0.978387 17.1741 1.49638 17.3943 2.03649 17.3943H3.51294L3.5401 21L7.83708 17.3943H21.9635C22.5036 17.3943 23.0216 17.1741 23.4035 16.7821C23.7854 16.3901 24 15.8585 24 15.3041V2.09025C24 1.53588 23.7854 1.00421 23.4035 0.612217C23.0216 0.22022 22.5036 0 21.9635 0ZM3.52652 5.63322C3.52652 5.47245 3.58875 5.31826 3.6995 5.20458C3.81026 5.09091 3.96047 5.02705 4.1171 5.02705H15.5316C15.6093 5.02659 15.6863 5.04194 15.7581 5.07224C15.83 5.10254 15.8953 5.14717 15.9502 5.20355C16.0051 5.25993 16.0486 5.32694 16.0782 5.40069C16.1077 5.47445 16.1226 5.55348 16.1222 5.63322V5.81437C16.1226 5.8941 16.1077 5.97314 16.0782 6.04689C16.0486 6.12064 16.0051 6.18765 15.9502 6.24403C15.8953 6.30041 15.83 6.34504 15.7581 6.37534C15.6863 6.40564 15.6093 6.42101 15.5316 6.42055H4.1171C3.96047 6.42055 3.81026 6.35668 3.6995 6.243C3.58875 6.12932 3.52652 5.97513 3.52652 5.81437V5.63322ZM17.8634 11.6914C17.8634 11.8627 17.7973 12.027 17.6797 12.1484C17.562 12.2698 17.4023 12.3385 17.2355 12.3394H4.16122C3.99379 12.3394 3.83321 12.2711 3.71482 12.1496C3.59643 12.0281 3.52992 11.8633 3.52992 11.6914V11.5904C3.52992 11.5055 3.54626 11.4214 3.57803 11.343C3.6098 11.2645 3.65636 11.1933 3.71503 11.1335C3.7737 11.0736 3.84332 11.0262 3.91989 10.994C3.99647 10.9618 4.07848 10.9455 4.16122 10.9459H17.2389C17.3213 10.9459 17.403 10.9626 17.4792 10.995C17.5553 11.0274 17.6246 11.0748 17.6829 11.1347C17.7412 11.1945 17.7874 11.2656 17.819 11.3438C17.8505 11.422 17.8668 11.5058 17.8668 11.5904L17.8634 11.6914ZM19.7913 9.38173H4.20535C4.02531 9.38173 3.85265 9.30832 3.72534 9.17765C3.59804 9.04699 3.52652 8.86977 3.52652 8.68498C3.52652 8.50019 3.59804 8.32297 3.72534 8.1923C3.85265 8.06164 4.02531 7.98823 4.20535 7.98823H19.7913C19.9713 7.98823 20.144 8.06164 20.2713 8.1923C20.3986 8.32297 20.4701 8.50019 20.4701 8.68498C20.4701 8.86977 20.3986 9.04699 20.2713 9.17765C20.144 9.30832 19.9713 9.38173 19.7913 9.38173Z" fill="#5C45ED"/>
</svg>
