<svg width="12" height="10" viewBox="0 0 12 10" fill="none" xmlns="http://www.w3.org/2000/svg">
<path fill-rule="evenodd" clip-rule="evenodd" d="M10.9818 8.28301H3.92024L1.77005 9.99834L1.75817 8.28135H1.01824C0.748189 8.28135 0.489199 8.17649 0.298241 7.98982C0.107283 7.80315 0 7.54998 0 7.286V0.995355C0 0.731371 0.107283 0.478197 0.298241 0.291532C0.489199 0.104867 0.748189 0 1.01824 0H10.9818C11.2518 0 11.5108 0.104867 11.7018 0.291532C11.8927 0.478197 12 0.731371 12 0.995355V7.28766C12 7.55164 11.8927 7.80481 11.7018 7.99148C11.5108 8.17815 11.2518 8.28301 10.9818 8.28301Z" fill="#241B5E"/>
</svg>
