<svg width="25" height="22" viewBox="0 0 25 22" fill="none" xmlns="http://www.w3.org/2000/svg">
<path d="M22.868 1.45985C23.0556 1.45985 23.2354 1.53676 23.3681 1.67364C23.5007 1.81053 23.5752 1.99619 23.5752 2.18978V16.0328C23.5752 16.2264 23.5007 16.4121 23.3681 16.549C23.2354 16.6859 23.0556 16.7628 22.868 16.7628H7.64743L7.25852 17.0912L5.07 18.938V18.208V16.7482H2.12134C1.9338 16.7482 1.75394 16.6713 1.62134 16.5344C1.48873 16.3975 1.41423 16.2118 1.41423 16.0182V2.18978C1.41423 1.99619 1.48873 1.81053 1.62134 1.67364C1.75394 1.53676 1.9338 1.45985 2.12134 1.45985H22.8787H22.868ZM22.8787 0H2.12134C1.55873 0 1.01915 0.230707 0.621325 0.64137C0.223496 1.05203 0 1.60901 0 2.18978V16.0328C0 16.6136 0.223496 17.1706 0.621325 17.5813C1.01915 17.9919 1.55873 18.2226 2.12134 18.2226H3.65931L3.68759 22L8.16362 18.2226H22.8787C23.4413 18.2226 23.9808 17.9919 24.3787 17.5813C24.7765 17.1706 25 16.6136 25 16.0328V2.18978C25 1.60901 24.7765 1.05203 24.3787 0.64137C23.9808 0.230707 23.4413 0 22.8787 0Z" fill="#5C45ED"/>
<path d="M17.943 11.449H4.32046C4.14605 11.449 3.97878 11.5205 3.85545 11.6478C3.73213 11.7751 3.66284 11.9478 3.66284 12.1278V12.2336C3.66284 12.3226 3.67987 12.4107 3.71297 12.4929C3.74606 12.575 3.79455 12.6496 3.85566 12.7124C3.91678 12.7751 3.9893 12.8248 4.06906 12.8585C4.14883 12.8922 4.23427 12.9093 4.32046 12.9088H17.943C18.1165 12.9088 18.2828 12.8377 18.4055 12.7111C18.5282 12.5844 18.5971 12.4127 18.5971 12.2336V12.1278C18.5971 11.9484 18.5283 11.7763 18.4057 11.6491C18.2832 11.5219 18.1168 11.4499 17.943 11.449Z" fill="#5C45ED"/>
<path d="M16.1681 5.26636H4.27803C4.11487 5.26636 3.95839 5.33327 3.84302 5.45236C3.72765 5.57145 3.66284 5.73297 3.66284 5.9014V6.09118C3.66284 6.2596 3.72765 6.42112 3.84302 6.54022C3.95839 6.65931 4.11487 6.72621 4.27803 6.72621H16.1681C16.3313 6.72621 16.4878 6.65931 16.6032 6.54022C16.7185 6.42112 16.7833 6.2596 16.7833 6.09118V5.9014C16.7833 5.73297 16.7185 5.57145 16.6032 5.45236C16.4878 5.33327 16.3313 5.26636 16.1681 5.26636Z" fill="#5C45ED"/>
<path d="M20.6053 8.36865H4.36996C4.18242 8.36865 4.00256 8.44555 3.86995 8.58244C3.73734 8.71933 3.66284 8.90499 3.66284 9.09858C3.66284 9.29217 3.73734 9.47783 3.86995 9.61472C4.00256 9.7516 4.18242 9.82851 4.36996 9.82851H20.6053C20.7928 9.82851 20.9727 9.7516 21.1053 9.61472C21.2379 9.47783 21.3124 9.29217 21.3124 9.09858C21.3124 8.90499 21.2379 8.71933 21.1053 8.58244C20.9727 8.44555 20.7928 8.36865 20.6053 8.36865Z" fill="#5C45ED"/>
</svg>
