<svg width="26" height="26" viewBox="0 0 26 26" fill="none" xmlns="http://www.w3.org/2000/svg">
<path d="M25.0502 22.9223L25.05 22.9221L21.5777 19.5114C23.3906 17.3076 24.3303 14.5233 24.2083 11.6777C24.0795 8.67387 22.7776 5.8363 20.5764 3.75498C18.3753 1.6739 15.4446 0.508895 12.3944 0.500051C9.3442 0.491206 6.40652 1.63919 4.19307 3.70744C1.97936 5.77593 0.660514 8.60587 0.513709 11.6089C0.366901 14.612 1.40365 17.5538 3.40585 19.8221C5.40782 22.0901 8.22044 23.5099 11.2575 23.7888C14.1477 24.0542 17.0319 23.2671 19.3668 21.5843L22.8988 25.061L22.899 25.0612C23.041 25.2009 23.2091 25.3112 23.3936 25.3863C23.578 25.4614 23.7754 25.5 23.9746 25.5C24.1738 25.5 24.3712 25.4614 24.5556 25.3863C24.7401 25.3112 24.9082 25.2009 25.0502 25.0612C25.1923 24.9215 25.3054 24.7553 25.3827 24.5717C25.4601 24.3881 25.5 24.191 25.5 23.9917C25.5 23.7925 25.4601 23.5954 25.3827 23.4118C25.3054 23.2282 25.1923 23.0619 25.0502 22.9223ZM3.59507 12.1934C3.59513 10.4883 4.10934 8.82073 5.0737 7.40158C6.03819 5.98224 7.40994 4.87474 9.01646 4.22041C10.623 3.56606 12.3914 3.39473 14.0974 3.72842C15.8035 4.0621 17.3694 4.88554 18.5978 6.09332C19.826 7.30102 20.6614 8.83868 20.9998 10.5114C21.3382 12.1841 21.1646 13.9179 20.5006 15.4941C19.8366 17.0703 18.7116 18.4189 17.2665 19.3684C15.8215 20.3178 14.1218 20.8251 12.3823 20.8252C10.0501 20.8222 7.81586 19.9097 6.16921 18.2906C4.52293 16.6718 3.59824 14.479 3.59507 12.1934Z" fill="#5C45ED" stroke="#5C45ED"/>
</svg>
