<svg width="48" height="48" viewBox="0 0 48 48" fill="none" xmlns="http://www.w3.org/2000/svg">
<defs>
<linearGradient id="paint0_linear_1371_4003" x1="24" y1="48" x2="24" y2="0" gradientUnits="userSpaceOnUse">
<stop stop-color="#EE0979"/>
<stop offset="0.48" stop-color="#FF6A00"/>
<stop offset="0.65" stop-color="#FF830A"/>
<stop offset="1" stop-color="#FFC024"/>
</linearGradient>
<linearGradient id="paint1_linear_1371_4003" x1="24" y1="36.3901" x2="24" y2="8.13849" gradientUnits="userSpaceOnUse">
<stop stop-color="#271987"/>
<stop offset="0.32" stop-color="#441578"/>
<stop offset="0.49" stop-color="#3A2E8B"/>
<stop offset="0.86" stop-color="#226CBD"/>
<stop offset="1" stop-color="#1886D1"/>
</linearGradient>
</defs>
<path d="M24 48C37.2548 48 48 37.2548 48 24C48 10.7452 37.2548 0 24 0C10.7452 0 0 10.7452 0 24C0 37.2548 10.7452 48 24 48Z" fill="url(#paint0_linear_1371_4003)"/>
<path d="M38.7113 18.8269C38.6302 18.5773 38.4809 18.3554 38.2803 18.1863C38.0796 18.0171 37.8357 17.9075 37.576 17.8697L29.0663 16.6332L25.261 8.92224C25.1448 8.68699 24.9651 8.48892 24.7423 8.35043C24.5195 8.21193 24.2624 8.13855 24 8.13855C23.7376 8.13855 23.4805 8.21193 23.2577 8.35043C23.0349 8.48892 22.8552 8.68699 22.7391 8.92224L18.9328 16.6332L10.4232 17.8697C10.1634 17.9075 9.9194 18.0171 9.71875 18.1863C9.51809 18.3555 9.36882 18.5774 9.28776 18.8271C9.2067 19.0767 9.19709 19.344 9.26007 19.5988C9.32304 19.8536 9.45606 20.0857 9.64408 20.2688L15.8016 26.2688L14.3475 34.7447C14.3031 35.0034 14.3321 35.2693 14.431 35.5124C14.5299 35.7556 14.6948 35.9661 14.9072 36.1204C15.1195 36.2746 15.3708 36.3663 15.6326 36.3851C15.8944 36.404 16.1562 36.3492 16.3885 36.2269L24 32.2257L31.6107 36.2269C31.8429 36.3492 32.1047 36.404 32.3665 36.3851C32.6283 36.3663 32.8796 36.2746 33.0919 36.1204C33.3043 35.9661 33.4692 35.7556 33.5681 35.5124C33.667 35.2693 33.696 35.0034 33.6516 34.7447L32.1975 26.2688L38.356 20.2688C38.5438 20.0856 38.6767 19.8534 38.7395 19.5986C38.8022 19.3438 38.7925 19.0765 38.7113 18.8269Z" fill="url(#paint1_linear_1371_4003)"/>
</svg>
