<svg width="13" height="15" viewBox="0 0 13 15" fill="none" xmlns="http://www.w3.org/2000/svg">
<g clip-path="url(#clip0_1050_3715)">
<path d="M10.929 0.995355C11.061 0.995355 11.1876 1.04779 11.2809 1.14112C11.3742 1.23445 11.4267 1.36104 11.4267 1.49303V13.507C11.4267 13.639 11.3742 13.7655 11.2809 13.8589C11.1876 13.9522 11.061 14.0046 10.929 14.0046H1.49303C1.36104 14.0046 1.23445 13.9522 1.14112 13.8589C1.04779 13.7655 0.995355 13.639 0.995355 13.507V1.49303C0.995355 1.36104 1.04779 1.23445 1.14112 1.14112C1.23445 1.04779 1.36104 0.995355 1.49303 0.995355H10.929ZM10.929 0H1.49303C1.09706 0 0.717296 0.157301 0.437298 0.437299C0.1573 0.717297 0 1.09706 0 1.49303V13.507C0 13.9029 0.1573 14.2827 0.437298 14.5627C0.717296 14.8427 1.09706 15 1.49303 15H10.929C11.325 15 11.7047 14.8427 11.9847 14.5627C12.2647 14.2827 12.422 13.9029 12.422 13.507V1.49303C12.422 1.09706 12.2647 0.717297 11.9847 0.437299C11.7047 0.157301 11.325 0 10.929 0Z" fill="#190A33"/>
<path d="M8.69459 10.5215H3.15295C3.02096 10.5215 2.89437 10.5739 2.80104 10.6673C2.70771 10.7606 2.65527 10.8872 2.65527 11.0192C2.65527 11.1512 2.70771 11.2777 2.80104 11.3711C2.89437 11.4644 3.02096 11.5168 3.15295 11.5168H8.69459C8.82658 11.5168 8.95317 11.4644 9.0465 11.3711C9.13983 11.2777 9.19226 11.1512 9.19226 11.0192C9.19226 10.8872 9.13983 10.7606 9.0465 10.6673C8.95317 10.5739 8.82658 10.5215 8.69459 10.5215Z" fill="#190A33"/>
<path d="M7.47776 6.07715H3.15295C3.02096 6.07715 2.89437 6.12958 2.80104 6.22291C2.70771 6.31625 2.65527 6.44283 2.65527 6.57483C2.65527 6.70682 2.70771 6.8334 2.80104 6.92674C2.89437 7.02007 3.02096 7.0725 3.15295 7.0725H7.47776C7.60975 7.0725 7.73634 7.02007 7.82967 6.92674C7.92301 6.8334 7.97544 6.70682 7.97544 6.57483C7.97544 6.44283 7.92301 6.31625 7.82967 6.22291C7.73634 6.12958 7.60975 6.07715 7.47776 6.07715Z" fill="#190A33"/>
<path d="M8.83394 8.40625H3.15295C3.02096 8.40625 2.89437 8.45868 2.80104 8.55202C2.70771 8.64535 2.65527 8.77194 2.65527 8.90393C2.65527 9.03592 2.70771 9.1625 2.80104 9.25584C2.89437 9.34917 3.02096 9.4016 3.15295 9.4016H8.83394C8.96593 9.4016 9.09252 9.34917 9.18585 9.25584C9.27918 9.1625 9.33161 9.03592 9.33161 8.90393C9.33161 8.77194 9.27918 8.64535 9.18585 8.55202C9.09252 8.45868 8.96593 8.40625 8.83394 8.40625Z" fill="#190A33"/>
</g>
<defs>
<clipPath id="clip0_1050_3715">
<rect width="12.422" height="15" fill="white"/>
</clipPath>
</defs>
</svg>
