<svg width="27" height="25" viewBox="0 0 27 25" fill="none" xmlns="http://www.w3.org/2000/svg">
<path d="M24.709 0.94043L2.29105 0.94043C1.68342 0.94043 1.10069 1.19211 0.67103 1.64011C0.241376 2.0881 -2.79674e-10 2.69572 -3.80621e-10 3.32928L-2.78678e-09 18.4308C-2.88773e-09 19.0644 0.241376 19.672 0.67103 20.12C1.10069 20.568 1.68342 20.8197 2.29105 20.8197L3.95206 20.8197L3.98261 24.9404L8.81671 20.8197L24.709 20.8197C25.3166 20.8197 25.8993 20.568 26.329 20.12C26.7586 19.672 27 19.0644 27 18.4308L27 3.32928C27 2.69572 26.7586 2.0881 26.329 1.64011C25.8993 1.19211 25.3166 0.94043 24.709 0.94043ZM3.96734 7.37839C3.96734 7.19466 4.03734 7.01845 4.16194 6.88853C4.28654 6.75861 4.45552 6.68563 4.63174 6.68563L17.4731 6.68563C17.5604 6.6851 17.6471 6.70265 17.7279 6.73728C17.8088 6.77191 17.8822 6.82291 17.944 6.88735C18.0058 6.95178 18.0547 7.02836 18.0879 7.11265C18.1211 7.19694 18.138 7.28727 18.1375 7.37839L18.1375 7.58542C18.138 7.67654 18.1211 7.76687 18.0879 7.85116C18.0547 7.93545 18.0058 8.01203 17.944 8.07646C17.8822 8.1409 17.8088 8.19191 17.7279 8.22653C17.6471 8.26116 17.5604 8.27872 17.4731 8.2782L4.63174 8.2782C4.45552 8.2782 4.28654 8.2052 4.16194 8.07529C4.03734 7.94537 3.96734 7.76915 3.96734 7.58542L3.96734 7.37839ZM20.0963 14.3021C20.0963 14.4978 20.022 14.6856 19.8896 14.8243C19.7573 14.9631 19.5776 15.0416 19.3899 15.0426L4.68138 15.0426C4.49301 15.0426 4.31237 14.9646 4.17917 14.8257C4.04598 14.6868 3.97116 14.4985 3.97116 14.3021L3.97116 14.1866C3.97116 14.0896 3.98955 13.9934 4.02529 13.9038C4.06102 13.8142 4.11341 13.7328 4.17941 13.6644C4.24541 13.5959 4.32373 13.5418 4.40988 13.505C4.49602 13.4682 4.58829 13.4495 4.68138 13.4501L19.3937 13.4501C19.4865 13.4501 19.5783 13.4691 19.6641 13.5061C19.7498 13.5431 19.8276 13.5974 19.8932 13.6658C19.9588 13.7342 20.0108 13.8154 20.0463 13.9047C20.0819 13.9941 20.1001 14.0899 20.1001 14.1866L20.0963 14.3021ZM22.2652 11.6624L4.73102 11.6624C4.52848 11.6624 4.33423 11.5785 4.19101 11.4292C4.04779 11.2798 3.96734 11.0773 3.96734 10.8661C3.96734 10.6549 4.04779 10.4524 4.19101 10.3031C4.33423 10.1537 4.52848 10.0698 4.73102 10.0698L22.2652 10.0698C22.4677 10.0698 22.6619 10.1537 22.8052 10.3031C22.9484 10.4524 23.0288 10.6549 23.0288 10.8661C23.0288 11.0773 22.9484 11.2798 22.8052 11.4292C22.6619 11.5785 22.4677 11.6624 22.2652 11.6624Z" fill="#7C68F0"/>
</svg>
